<svg xmlns="http://www.w3.org/2000/svg" data-name="Layer 1" width="842.15586" height="619.6172" viewBox="0 0 842.15586 619.6172" xmlns:xlink="http://www.w3.org/1999/xlink"><path d="M719.88048,178.91541A38.55279,38.55279,0,0,1,709.57212,205.217c-.50372.5487-1.03445,1.0794-1.57413,1.59213a585.04325,585.04325,0,0,0-62.82144-42.17782c.26984-.68362.55769-1.35825.8725-2.02388a38.71737,38.71737,0,0,1,73.83143,16.308Z" transform="translate(-178.92207 -140.1914)" fill="#f2f2f2"/><path d="M751.28219,257.71206l-.036.40479q-38.1975-2.63108-76.386-5.27109c-18.39489-1.26831-37.42841-2.70752-53.68248-11.41473-6.17065-3.30119-12.17928-7.70877-19.17746-8.01459-8.68025-.38679-16.25408,5.68488-22.2088,12.01738-35.19765,37.49138-45.38907,94.81688-84.87733,127.74779a1254.03174,1254.03174,0,0,1,88.92511-177.48144c6.3325-10.47923,13.8434-21.66908,25.59994-25.0872,11.21681-3.26521,22.69451,1.50217,33.02087,7.61881,2.21281,1.31328,4.37159,2.68953,6.45845,4.05676q23.8683,15.62437,46.9542,32.44512Q724.22057,235.36388,751.28219,257.71206Z" transform="translate(-178.92207 -140.1914)" fill="#f2f2f2"/><path d="M833.64092,337.22837a603.25431,603.25431,0,0,0-94.22321-104.5855q-15.26019-13.41162-31.41972-25.8338a585.04317,585.04317,0,0,0-62.82144-42.17781q-10.74012-6.23356-21.732-11.97242c-5.69388-2.95936-11.75654-5.66688-18.32292-5.24412a24.37864,24.37864,0,0,0-12.656,4.86633c-8.06854,5.89177-13.4116,15.0937-17.8102,23.86388-3.84991,7.69078-7.43893,15.53447-11.09992,23.33318-1.55613,3.31918-3.11231,6.62935-4.72241,9.92154q-8.41944,17.29751-17.2345,34.40609-11.36073,22.04693-23.37814,43.76094-25.24465,45.64539-53.27772,89.64473-41.20641,64.66994-88.16952,125.418c-3.84088,4.95628-5.424,6.10762-9.31887,11.02795-.8995,1.15139-2.50062-.46776-1.61012-1.6101,32.48119-41.05345,60.76164-79.84012,89.27592-123.754q32.24732-49.66623,60.95048-101.53619,9.21537-16.63629,18.04408-33.47959,14.28868-27.26855,27.58782-55.04974,3.508-7.313,6.94416-14.67992c7.277-15.58844,17.87317-38.7687,38.33692-38.45387,6.01769.09,11.60364,2.52761,16.87473,5.22613,5.37,2.76149,10.64117,5.69387,15.90325,8.67123q3.1573,1.781,6.28754,3.616,12.39968,7.205,24.43054,15.01275,20.077,13.02031,39.09253,27.59682,9.02655,6.92172,17.78324,14.15821a605.857,605.857,0,0,1,98.127,102.82248q5.1676,6.86772,10.11944,13.88836C836.44742,337.28234,834.4775,338.41567,833.64092,337.22837Z" transform="translate(-178.92207 -140.1914)" fill="#e4e4e4"/><path d="M741.44357,221.19419c1.189-1.32549,2.37065-2.651,3.56745-3.97646,9.43739-10.43731,19.5638-20.75335,32.52351-26.737a47.18532,47.18532,0,0,1,19.76876-4.58239,56.41679,56.41679,0,0,1,20.52584,4.47637c3.09035,1.2346,6.11262,2.63581,9.08905,4.12791,3.401,1.71176,6.74135,3.53719,10.06612,5.3777q9.362,5.18076,18.481,10.816,18.14424,11.21361,35.152,24.139,8.8167,6.70323,17.26942,13.84566,7.862,6.635,15.40584,13.626c1.07547.99221,2.68128-.6135,1.60581-1.60573-1.32548-1.2346-2.66612-2.46162-4.00676-3.67349q-5.68065-5.13531-11.54325-10.07373-10.69054-9.02085-21.93489-17.34491-17.48526-12.9519-36.17425-24.14656-9.33915-5.58977-18.93551-10.70993c-1.93165-1.03008-3.88587-2.03747-5.8626-2.99182a93.45644,93.45644,0,0,0-13.93646-5.67308,49.57831,49.57831,0,0,0-21.04872-2.06774,54.801,54.801,0,0,0-19.42035,6.71831c-12.72452,7.1122-22.59355,18.10991-32.19779,28.84258C738.868,220.67156,740.46644,222.28486,741.44357,221.19419Z" transform="translate(-178.92207 -140.1914)" fill="#e4e4e4"/><path d="M480.72172,329.35191l-30.49128-11.15233-15.139-5.53717a154.815,154.815,0,0,0-14.94619-5.14764,23.57947,23.57947,0,0,0-13.52813.17236,31.17915,31.17915,0,0,0-10.55162,6.54091,85.62927,85.62927,0,0,0-8.65453,9.24241c-3.296,3.96111-6.5434,7.96373-9.80532,11.953q-20.1939,24.69642-40.12371,49.60725-19.92936,24.91042-39.59222,50.03247Q278.17879,460.2466,258.739,485.64072q-2.38142,3.11085-4.75875,6.22484c-.87564,1.14689-2.85.01619-1.962-1.14689q19.58324-25.64941,39.43947-51.08891,19.90506-25.50028,40.0852-50.78421,20.17974-25.2834,40.63222-50.34764,5.09534-6.24426,10.20747-12.47471c2.87483-3.50375,5.71724-7.04531,8.87051-10.30645,5.788-5.98608,13.0193-11.27622,21.67532-11.4197,5.08928-.08438,10.0146,1.53054,14.74307,3.24116,5.09749,1.84409,10.18277,3.72271,15.27375,5.58474l30.70449,11.23032,7.67613,2.80758c1.36222.49825.77376,2.695-.60405,2.19109Z" transform="translate(-178.92207 -140.1914)" fill="#e4e4e4"/><path d="M781.54711,203.614c15.495-7.96363,35.33848-6.40389,49.57729,3.54547A707.12134,707.12134,0,0,0,750.67509,225.936C761.6494,219.50473,770.234,209.42846,781.54711,203.614Z" transform="translate(-178.92207 -140.1914)" fill="#f2f2f2"/><path d="M831.277,207.13206l2.983,2.42464c-1.009-.84863-2.05793-1.6443-3.13548-2.39718C831.17535,207.1507,831.226,207.14084,831.277,207.13206Z" transform="translate(-178.92207 -140.1914)" fill="#f2f2f2"/><path d="M397.21358,329.46333c3.00149-3.65358,6.24661-7.47912,10.73606-8.9631l4.19148.16531a475.43625,475.43625,0,0,1-126.63225,144.7704Q341.36124,397.44967,397.21358,329.46333Z" transform="translate(-178.92207 -140.1914)" fill="#f2f2f2"/><path d="M753.42242,341.02221a32.21658,32.21658,0,0,1-40.61,20.63q-1.38-.45-2.7-1.02a32.2021,32.2021,0,0,1-17.93-39.58,31.87949,31.87949,0,0,1,3.22-6.94,32.20583,32.20583,0,0,1,58.02,26.91Z" transform="translate(-178.92207 -140.1914)" fill="#a0616a"/><path d="M692.38714,322.66492c4.46454,2.1994,9.5203-.9883,13.4269-4.15839l-1.39795,1.18244c6.77766,6.73122,9.87982,16.34715,11.34677,25.79671,1.46863,9.43969,1.544,19.07874,3.419,28.45564,1.87654,9.367,5.872,18.80014,13.45662,24.60349,10.16087,7.773,24.28887,7.42608,36.87931,5.20487.16777-.03233.32405-.05647.49181-.0888a76.72188,76.72188,0,0,1-3.72807-30.45566A69.75863,69.75863,0,0,0,782.745,400.82534a160.13915,160.13915,0,0,0,24.40852-8.61075c5.10551-2.2866,10.60994-5.42848,12.07591-10.82912,1.46909-5.35961-1.75607-11.03038-6.11133-14.469-4.35526-3.4386-9.72523-5.26451-14.70175-7.73352-4.96843-2.45754-9.87429-5.939-11.82028-11.13875-4.48863-11.96153,8.788-25.49775,3.789-37.262-2.46527-5.78507-8.61655-8.98129-14.40359-11.45623a213.11662,213.11662,0,0,0-27.17569-9.47895c-8.13053-2.23438-16.6259-3.99316-24.94554-2.66886-8.3197,1.3243-16.50817,6.29207-19.57839,14.14863-5.00475,1.63429-10.31923,3.47967-13.56324,7.64483C687.47632,313.12688,687.66,320.33972,692.38714,322.66492Z" transform="translate(-178.92207 -140.1914)" fill="#2f2e41"/><path d="M511.03286,568.68263c27.00173-3.64185,53.88739,6.152,81.07605,7.92135,27.05543,1.76074,54.42365-5.048,77.93045-18.51877,16.62047-9.52453,37.03189-8.10822,52.89851,2.62524q.59919.40533,1.21357.78156c13.10327,8.021,29.28573,8.56316,44.64606,8.876l151.58419,3.08541s36.35971,8.61781,41.60079,26.77806c5.2409,18.16026-6.37036,37.817-22.41866,47.80288-16.04829,9.98564-35.51665,12.4577-54.3238,14.343a1514.74814,1514.74814,0,0,1-363.23865-7.43144c-22.30786-3.16209-48.47408-9.90989-56.07774-31.11881C456.72847,598.17921,484.03113,572.32466,511.03286,568.68263Z" transform="translate(-178.92207 -140.1914)" fill="#ccc"/><path d="M851.4878,604.65355,756.29059,593.2361a33.72311,33.72311,0,0,1,8.03159-66.96631l95.1972,11.41746a33.72311,33.72311,0,0,1-8.03158,66.9663Z" transform="translate(-178.92207 -140.1914)" fill="#2f2e41"/><path d="M832.82351,365.24567l13.95282,13.534,17.83578,7.91166s-5.25982,108.60543.811,116.3309-.17269,7.16471.13866,16.29206,1.47721,27.90062,1.47721,27.90062c-49.51875,19.06316-89.73992,14.90992-118.52487-17.7992a8.08881,8.08881,0,0,1,5.46911-8.53947c6.38308-2.46453-3.36775-18.71,1.83468-20.60675s.88968-24.28076.88968-24.28076l9.91937-44.43362-2.71281-7.61831,14.00069-42.94559,15.80181-3.713,7.79474-13.8449Z" transform="translate(-178.92207 -140.1914)" fill="#6c63ff"/><path d="M646.26688,467.44786a13.40639,13.40639,0,0,1,20.19937,3.81865l46.90345-8.35527L703.5762,485.649l-43.03887,4.44842a13.47905,13.47905,0,0,1-14.27041-22.6495Z" transform="translate(-178.92207 -140.1914)" fill="#ffb6b6"/><path d="M676.76378,490.35231l85.96106-6.75773.17153-.32484c.1967-.372,11.95876-22.65286,22.39173-43.507,1.60666-3.2115,3.18179-6.38916,4.67832-9.44777q.96881-1.98006,1.88991-3.88676c4.14177-8.57573,7.44173-15.82548,8.7311-19.634a39.57043,39.57043,0,0,0-.06507-26.31906l-.08691-.20571-.19366-.112a20.08071,20.08071,0,0,0-24.812,3.89088,142.23662,142.23662,0,0,0-31.44816,57.16959l-3.34832,12.08346-61.5012,13.7753Z" transform="translate(-178.92207 -140.1914)" fill="#6c63ff"/><polygon points="339.287 575.857 325.673 569.346 344.374 512.441 364.467 522.051 339.287 575.857" fill="#a0616a"/><path d="M609.48031,706.87426c-.99.62012-1.98,1.23-2.98,1.84009-1.99,1.22-4,2.41992-6.01,3.59985-1.01.59009-2.03,1.18018-3.04,1.76026v.02978l-.06.01-.02.01-1.54.38013-2.21-5.84009-1.02-2.68994-1.44-3.81006-2.64-6.97-13.9-36.7,21.61-5.33008.81,3.31006h.01l.4,1.63989,7.55,30.62012,1.54,6.26.05.18994.93,3.74.8,3.24.88995,3.62012Z" transform="translate(-178.92207 -140.1914)" fill="#a0616a"/><path d="M738.39245,577.99224c-1.37,2.2-2.77,4.39-4.18,6.56q-3.93009,6.06-8.07,11.94c0,.01-.01.01-.02.02a28.23387,28.23387,0,0,1-5.3,3.87c-.08.06-.17.1-.25.15a19.53944,19.53944,0,0,1-4.46,1.79c-.56.14-1.13.28-1.69.42-2.02.48-4.02.89-6.01,1.25-3.54.63-7.04,1.08-10.52,1.36-.28.03-.56.05-.84.07-14.31,1.05-28.24-.64-42.78-3.41-7.18005-1.36-14.51-2.99-22.1-4.68-2.48-.56-4.97-1.11-7.49-1.66-.19-.04-.39-.09-.59-.13-3.6-.79-7.26-1.57-11.01-2.34-4.72-.97-9.59-1.91-14.65-2.8l.36,7.13a53.66278,53.66278,0,0,0,3.38,16.03c2.16,6.32,3.87,11.32.26,21.73l-1.74,5.04a17.21289,17.21289,0,0,1-1.77,15.23l-.35.53,14.51,36.71.94,2.38H606.5924l-9.13995.01h-15.49l-22.35-44.84-1.07-2.14v-.11l2.31-86.17c.03-.76.09-1.53.19-2.29a26.19828,26.19828,0,0,1,9.97-17.64,25.22967,25.22967,0,0,1,18.79-5.14l7.65.99,15.63,2.02,11.01,1.43.22.03,32.47,4.2,2.33-9.5.43-.16,13.67-5.01,47.28-17.33.12-.04,3.11-1.14.37.6c.11005.18.22.36.32.54a92.6792,92.6792,0,0,1,7.47,17.34,272.2126,272.2126,0,0,1,7.85,29.97q.135.66.24,1.2l.03.11c.03.17.05.28.06.31C741.15246,566.96222,740.39245,572.50225,738.39245,577.99224Z" transform="translate(-178.92207 -140.1914)" fill="#2f2e41"/><path d="M740.388,546.23608c-.15-.64-.34-1.29-.54-1.92a136.81363,136.81363,0,0,0-5.54-14.02c-2.36-5.2-5.19-10.77-8.56-16.8q-2.445-4.38008-5.26-9.11-1.41-2.37-2.93-4.83a2.5426,2.5426,0,0,0-.13-.22l-.29-.48-46.78,6.26-17.42,2.33-1.04,8.68-.25,2.15c-.01,0-.01,0,0,.01l-.7,5.86v.01l-.93,7.74-.08-.01-25.85-3.35-26.64-3.45-14.31-1.85a25.21443,25.21443,0,0,0-18.79,5.14,26.21145,26.21145,0,0,0-9.97,17.64c-.09.7-.15,1.42-.18005,2.13l-13.5,31.99a206.39592,206.39592,0,0,0-15.26,60.04l-9.9,31.65,1.41.13,20.98,1.95,5.54.52,12.2-17.81c1.39-2.03,2.71-4.12,3.94-6.26a95.07275,95.07275,0,0,0,5.39-10.84l26.39-62.8q3.06006.52515,6.06,1,13.87509,2.25,26.64,3.67c27.67,3.09,51.63,3.33,72.96.71q8.985-1.095,17.37-2.88,3.07508-.64507,6.07-1.39c.47-.11.93-.22,1.39-.34a25.51931,25.51931,0,0,0,17.85-16.68A26.0382,26.0382,0,0,0,740.388,546.23608Z" transform="translate(-178.92207 -140.1914)" fill="#2f2e41"/><path d="M522.558,706.7561l-14.73-7.06-2.31-1.11-3.69,9.06-25.76,5.67a6.11225,6.11225,0,0,0-1,11.63l25.17,10.27,7.99-7.19-1.96,9.65,9.48,3.87,10.39-33.07Z" transform="translate(-178.92207 -140.1914)" fill="#2f2e41"/><polygon points="434.16 552.611 435.1 554.991 434.16 554.991 434.16 552.611" fill="#2f2e41"/><path d="M607.95237,695.69082,592.518,701.03846l-2.42244.83664,3.75277,9.03418-14.31489,22.15426a6.11225,6.11225,0,0,0,7.47253,8.96762l25.11139-10.41248.61846-10.731,5.39721,8.23619,9.45925-3.92038-15.88587-30.80934Z" transform="translate(-178.92207 -140.1914)" fill="#2f2e41"/><path d="M546.97767,298.74509a10.96213,10.96213,0,0,0,13.84932,9.52583l22.1616,32.03755,7.55842-18.77938-22.20382-27.54432a11.02151,11.02151,0,0,0-21.36552,4.76032Z" transform="translate(-178.92207 -140.1914)" fill="#a0616a"/><path d="M566.03125,316.41986,586.479,306.03021l43.70427,56.843,78.6869,23.33263a27.638,27.638,0,0,1,16.76,39.06h0a27.66743,27.66743,0,0,1-37.18028,12.05363l-82.34-42.02142Z" transform="translate(-178.92207 -140.1914)" fill="#3f3d56"/><path d="M736.426,399.21964c-8.01044-4.11411-14.21655-11.21964-17-24l-13-1-43.0809,42.20685c-22.436,27.42872-6.1326,46.34432-5.15661,49.15724l-7.78777,35.90746,1.74547,12.01714.87173,3.56972,88.89622,46.45008L734.426,501.21964l7.057-54.06987C749.50189,422.1652,752.76024,419.75974,736.426,399.21964Z" transform="translate(-178.92207 -140.1914)" fill="#3f3d56"/><path d="M665.88894,607.6634a10.96213,10.96213,0,0,0,2.73695-16.58476l19.5819-33.67626-20.21131,1.13916-15.4967,31.8049a11.02152,11.02152,0,0,0,13.38916,17.317Z" transform="translate(-178.92207 -140.1914)" fill="#a0616a"/><path d="M673.79054,582.90454l-18.09475-14.09376L688.5761,505.0921l-12.32042-81.14337a27.638,27.638,0,0,1,28.23421-31.77118h0A27.66745,27.66745,0,0,1,731.202,420.71042l-3.04411,92.39271Z" transform="translate(-178.92207 -140.1914)" fill="#3f3d56"/><polygon points="570.068 576.009 581.922 586.825 629.284 546.25 611.788 530.286 570.068 576.009" fill="#ffb6b6"/><path d="M749.49835,709.57114l3.33658,3.04449,17.86009,6.5893,2.14826,11.66749.00094.00086a20.14081,20.14081,0,0,1,1.30144,28.45189l-.44115.48343-38.22227-34.87648Z" transform="translate(-178.92207 -140.1914)" fill="#2f2e41"/><path d="M838.79135,589.96759l-10.23188-19.75641c.855-20.00483,18.2066-35.63434,38.13014-33.64017,11.09533,1.11054,21.27864,7.71686,24.896,26.36382,9.30184,47.94935-102.9237,142.85553-102.9237,142.85553l-19.49054-13.067-.4366-13.05719,11.42652-6.47147.42163-11.10627,10.83956-4.65777Z" transform="translate(-178.92207 -140.1914)" fill="#2f2e41"/><circle cx="808.63167" cy="327.43102" r="30.59062" transform="translate(226.40192 960.82812) rotate(-84.50888)" fill="#ffb6b6"/><path d="M786.34436,298.88729c3.20449-7.04445,16.15611-10.89913,36.43267-9.659,20.27657,1.24009,23.11249,25.54828,23.11249,25.54828,12.43893,12.24091-18.27452,38.85887-19.52272,37.67382l1.136-5.44652c1.88152-9.02149,6.83513-15.7255,2.31857-25.75015l-5.22-.44139-10.07249.951a2.87419,2.87419,0,0,1-1.9544-5.19049l.09822-.071-.19138-.36947c-3.63764,1.26344-7.37,2.40047-11.20042,2.25816-4.30925-.16-8.83-2.31578-10.52-6.28307a8.81762,8.81762,0,0,1-.66369-3.43427c-6.00029,1.75316-9.32743,8.62269-9.32743,8.62269S783.13988,305.93174,786.34436,298.88729Z" transform="translate(-178.92207 -140.1914)" fill="#2f2e41"/><polygon points="654.339 573.009 640.945 581.847 600.482 534.389 620.251 521.346 654.339 573.009" fill="#ffb6b6"/><path d="M845.24425,723.9301l-43.18856,28.49664-.36046-.54625a20.14079,20.14079,0,0,1,5.71765-27.90182l.00107-.00071,3.93954-11.19041,18.66852-3.7267,3.7701-2.48757Z" transform="translate(-178.92207 -140.1914)" fill="#2f2e41"/><path d="M772.043,588.05107l12.66458-20.58992c2.27165-19.89381-12.4334-38.03548-32.42437-39.16924-11.13288-.63139-22.221,4.308-28.69894,22.1638-16.65761,45.915,79.4139,157.14459,79.4139,157.14459l21.28813-9.87138,2.46526-12.82978-10.27894-8.17245,1.3136-11.03636-9.98167-6.28945Z" transform="translate(-178.92207 -140.1914)" fill="#2f2e41"/><path d="M819.48765,557.796a13.40637,13.40637,0,0,1,16.81263-11.82929l26.68511-39.46706,9.48738,22.86719-26.79511,33.97286a13.47905,13.47905,0,0,1-26.18993-5.54367Z" transform="translate(-178.92207 -140.1914)" fill="#ffb6b6"/><path d="M857.16582,551.87737l55.0434-66.37165-.11351-.34937c-.12978-.40024-7.91789-24.36126-15.60857-46.37484-1.18434-3.39-2.36638-6.7339-3.51778-9.93841q-.7454-2.07453-1.47139-4.06371c-3.26606-8.946-6.16744-16.36422-8.00114-19.94265a39.57044,39.57044,0,0,0-18.92507-18.29039l-.20812-.081-.21528.06089a20.08071,20.08071,0,0,0-14.496,20.50956,142.23674,142.23674,0,0,0,19.09944,62.39038l6.33512,10.82071-32.96768,53.71488Z" transform="translate(-178.92207 -140.1914)" fill="#6c63ff"/><ellipse cx="158.00394" cy="538.52823" rx="138.5" ry="43.30805" fill="#f2f2f2"/><ellipse cx="158.00394" cy="538.52823" rx="111.55985" ry="34.88404" fill="#e6e6e6"/><path d="M395.24774,653.99893c-6.48187-.87424-12.93589,1.4768-19.46263,1.90155a33.759,33.759,0,0,1-28.57144-13.05512c1.97573,3.11419.01958,7.5019-3.12591,9.42743s-7.03016,2.05562-10.71747,2.13071l-36.3884.74067.68706,3.13975c-3.01581-3.39008-9.41536-1.071-10.6735,3.28843s1.52923,9.07814,5.38169,11.47528c3.85246,2.39709,8.52591,2.99052,13.04065,3.44309a363.62178,363.62178,0,0,0,87.19692-1.784c5.35509-.75907,11.6364-2.37891,13.46169-7.4702C408.28373,661.0797,401.72962,654.87321,395.24774,653.99893Z" transform="translate(-178.92207 -140.1914)" fill="#3f3d56"/><path d="M419.25163,655.02746c-1.422-6.38411-5.86052-11.62636-8.51683-17.60322a33.759,33.759,0,0,1,2.36544-31.32361c-2.23846,2.93105-7.032,2.6135-9.92674.3283s-4.36064-5.885-5.70664-9.31871l-13.28272-33.8856-2.70823,1.73078c2.13752-4.00234-2.25215-9.20456-6.77768-8.877s-7.98865,4.57521-8.90512,9.01906.14347,9.034,1.28062,13.42659a363.62133,363.62133,0,0,0,31.8377,81.19634c2.56469,4.76189,6.2574,10.09505,11.66578,10.04642C417.11754,669.70807,420.67359,661.4116,419.25163,655.02746Z" transform="translate(-178.92207 -140.1914)" fill="#3f3d56"/><path d="M416.13707,556.46213c-3.46191-4.803-8.394-8.7381-14.22107-10.16956a18.66688,18.66688,0,0,0-16.12866,3.51813,22.71607,22.71607,0,0,0-3.42951,3.3739,102.2518,102.2518,0,0,1-7.11175,7.79041,133.00175,133.00175,0,0,0-13.70935-41.6,118.67236,118.67236,0,0,0-12.44934-18.97186c-3.91693-4.86914-8.16492-10.01947-14.352-11.93891a16.834,16.834,0,0,0-14.02924,1.9928,22.41339,22.41339,0,0,0-9.05133,12.57208,28.409,28.409,0,0,0-1.1062,9.02192c.13293,3.81414,1.15417,7.49072,1.791,11.235a102.52381,102.52381,0,0,1,1.1134,25.00324c-1.17389,15.29614-5.7854,30.61419-14.33484,43.4339q-.78324,1.17434-1.61322,2.31671a73.17283,73.17283,0,0,0-14.85162-24.4267q-1.718-1.86667-3.5716-3.60187a11.58506,11.58506,0,0,0-3.58209-2.61377c-5.11884-1.98193-8.79755,3.81958-8.28473,8.32532.37183,3.26721,2.51025,5.239,4.5235,7.63245a66.46227,66.46227,0,0,1,6.11352,8.593,60.778,60.778,0,0,1,7.72748,19.89808c1.45221,7.67852.77637,15.3551-.87585,22.94213-3.04108,13.96466-8.38251,28.8808-3.06238,43.02765,2.14545,5.70508,6.06879,10.63971,11.76587,13.07764a16.88464,16.88464,0,0,0,15.0827-.56024,14.89787,14.89787,0,0,0,1.68341-1.14429,7.77845,7.77845,0,0,0,.49366.80841c.62091.86579,1.60717.76392,2.57116.80109q1.54669.05968,3.09479.06573a90.13069,90.13069,0,0,0,11.92963-.75213,95.10893,95.10893,0,0,0,23.144-6.022,107.53327,107.53327,0,0,0,40.26446-28.6679,123.18572,123.18572,0,0,0,25.92347-47.29834,107.016,107.016,0,0,0,4.49389-28.04328A33.05018,33.05018,0,0,0,416.13707,556.46213Z" transform="translate(-178.92207 -140.1914)" fill="#fd6584"/><path d="M273.85967,673.268c6.48188-.87424,12.93589,1.47681,19.46264,1.90156a33.759,33.759,0,0,0,28.57144-13.05513c-1.97574,3.11419-.01959,7.50191,3.1259,9.42744s7.03016,2.05562,10.71747,2.13071l36.38841.74066-.68707,3.13975c3.01581-3.39008,9.41536-1.071,10.6735,3.28843s-1.52923,9.07814-5.38169,11.47528-8.52591,2.99052-13.04065,3.44309a363.62126,363.62126,0,0,1-87.19692-1.784c-5.35509-.75907-11.6364-2.37891-13.46168-7.47019C260.82368,680.34874,267.37779,674.14225,273.85967,673.268Z" transform="translate(-178.92207 -140.1914)" fill="#3f3d56"/><path d="M384.7705,679.02271c-2.25467-6.13966-7.34813-10.74816-10.77233-16.32075a33.497,33.497,0,0,1-4.81972-18.18261,12.4515,12.4515,0,0,0-6.46917-11.365q-.157-.08352-.30927-.17384c-3.17178-1.88187-5.10137-5.25593-6.8901-8.48119L337.858,592.67046s-5.90616-6.7513-10.34848-5.82747c-4.4423.92388-7.31264,5.59254-7.63272,10.11861s1.3382,8.93553,3.04686,13.13887a363.569,363.569,0,0,0,44.9475,79.86559,12.06083,12.06083,0,0,0,6.82016,4.61543C383.69807,696.71674,387.38742,686.149,384.7705,679.02271Z" transform="translate(-178.92207 -140.1914)" fill="#3f3d56"/><path d="M259.88006,677.54048c2.25467-6.13967,7.34814-10.74817,10.77233-16.32075a33.497,33.497,0,0,0,4.81972-18.18261,12.4515,12.4515,0,0,1,6.46917-11.365q.157-.08352.30928-.17384c3.17177-1.88188,5.10136-5.25593,6.89009-8.4812l17.65187-31.82885,2.45526,2.07407c-1.58884-4.25009,3.45091-8.82537,7.89323-7.90154s7.31263,5.59254,7.63272,10.1186-1.33821,8.93553-3.04687,13.13888a363.56919,363.56919,0,0,1-44.9475,79.86559,12.06083,12.06083,0,0,1-6.82016,4.61543C260.9525,695.2345,257.26314,684.66675,259.88006,677.54048Z" transform="translate(-178.92207 -140.1914)" fill="#3f3d56"/><path d="M287.56462,550.08652l.16559-.25043a7.72482,7.72482,0,0,0,6.52307-11.38318Z" transform="translate(-178.92207 -140.1914)" fill="#fd6584"/><path d="M373.52165,502.5416a3.69776,3.69776,0,0,0-2.09253.30761c-1.44946.79187-1.56543,2.96619-.69055,4.36713a10.19584,10.19584,0,0,0,3.83435,3.05292,7.70822,7.70822,0,0,1,3.55164,3.3233c.64026,1.52252-.04016,3.6872-1.66522,3.98242l-1.19764,4.31354a9.86255,9.86255,0,0,0-1.74-19.34692Z" transform="translate(-178.92207 -140.1914)" fill="#fd6584"/><path d="M407.06651,514.92111a27.689,27.689,0,0,1-.52319,18.19831,12.73152,12.73152,0,0,0,.52319-18.19831Z" transform="translate(-178.92207 -140.1914)" fill="#fd6584"/><path d="M406.26665,533.87747c.1037-.24841.1806-.50671.27667-.75805a12.41742,12.41742,0,0,1-2.02985,1.56585Z" transform="translate(-178.92207 -140.1914)" fill="#fd6584"/><path d="M537.30884,312.34285l13.17169-47.91818a6.42,6.42,0,0,1,7.88333-4.48385l10.44349,2.87069a6.42,6.42,0,0,1,4.48386,7.88333L560.11952,318.613a6.42,6.42,0,0,1-7.88333,4.48386l-10.44349-2.87069A6.42,6.42,0,0,1,537.30884,312.34285Z" transform="translate(-178.92207 -140.1914)" fill="#3f3d56"/><path d="M558.91406,262.72072a3.45983,3.45983,0,0,0-4.24823,2.41629l-13.17168,47.91818a3.45982,3.45982,0,0,0,2.41629,4.24823l10.44349,2.87069a3.45982,3.45982,0,0,0,4.24823-2.41629l13.17168-47.91818a3.45982,3.45982,0,0,0-2.41629-4.24823Z" transform="translate(-178.92207 -140.1914)" fill="#6c63ff"/><path d="M230.76554,524.23842a2.16814,2.16814,0,0,1-1.57133-3.75791l.14856-.59063-.059-.14178c-1.99607-4.75961-14.73307,8.50851-15.28374,12.98174a17.22466,17.22466,0,0,0,.30237,5.92393,69.05778,69.05778,0,0,1-6.28191-28.6819,66.65448,66.65448,0,0,1,.41344-7.43584q.34251-3.03607.95035-6.02892a69.85766,69.85766,0,0,1,13.85345-29.60753c3.94284.22006,7.39835-.38058,7.732-8.02207.05934-1.35929,1.06755-2.53624,1.2897-3.87527-.37641.04937-.759.08022-1.13541.10489-.11726.00614-.24067.01233-.35793.01852l-.04422.002a2.14813,2.14813,0,0,1-1.76422-3.49966q.2438-.3.48788-.59975c.24686-.30856.49986-.61093.74667-.91944a1.06964,1.06964,0,0,0,.08022-.0926c.2839-.35175.5677-.6973.8516-1.04905a6.21153,6.21153,0,0,0-2.03638-1.96843c-2.84475-1.66612-6.76939-.51219-8.82429,2.061-2.061,2.57318-2.44978,6.18317-1.734,9.39814a24.89307,24.89307,0,0,0,3.44335,7.67646c-.1543.19749-.31475.38878-.469.58627a70.30909,70.30909,0,0,0-7.33849,11.62592c.583-4.55366-6.54576-20.99855-9.30261-24.48182a5.99918,5.99918,0,0,0-10.68523,2.94582q-.00848.077-.01654.154.61422.34652,1.20251.73558a2.94092,2.94092,0,0,1-1.18572,5.35192l-.06.00926c-5.48122,7.82609,12.09017,28.19544,16.48842,23.6219a71.76441,71.76441,0,0,0-3.86295,18.1792,68.06556,68.06556,0,0,0,.04938,10.99022l-.01854-.12959c-.97723-7.963-17.74241-19.80238-22.63812-18.81619-2.82028.56811-5.59813.439-5.16987,3.2838l.02084.13623a19.758,19.758,0,0,1,2.2153,1.06752q.61424.34659,1.20251.73557a2.941,2.941,0,0,1-1.18572,5.352l-.06.00922c-.04318.00619-.08023.01237-.12337.01856-2.495,8.58477,16.00784,22.4395,27.25646,18.03109h.0062a71.74333,71.74333,0,0,0,4.81943,14.06946h17.21652c.06175-.1913.11727-.38879.17283-.58008a19.56083,19.56083,0,0,1-4.76392-.28381c1.27738-1.56742,2.55471-3.14717,3.83209-4.71454a1.06972,1.06972,0,0,0,.08023-.09256c.64792-.80218,1.302-1.59822,1.95-2.4004l.00035-.001a28.653,28.653,0,0,0-.83957-7.29912Zm-19.71523-38.78323.00907-.01223-.00907.02456Zm-3.81352,34.37759-.14811-.33317c.00619-.24067.00619-.48134,0-.72815,0-.06794-.01233-.13579-.01233-.20368.05551.42578.10488.8516.16658,1.27738Z" transform="translate(-178.92207 -140.1914)" fill="#f2f2f2"/><path d="M969.23391,555.23876a28.653,28.653,0,0,0-.83957,7.29912l.00035.001c.64792.80218,1.302,1.59822,1.95,2.4004a1.06972,1.06972,0,0,0,.08023.09256c1.27738,1.56737,2.55471,3.14712,3.83209,4.71454a19.56083,19.56083,0,0,1-4.76392.28381c.05556.19129.11108.38878.17283.58008H986.8824a71.74333,71.74333,0,0,0,4.81943-14.06946h.0062c11.24862,4.40841,29.75145-9.44632,27.25646-18.03109-.04314-.00619-.08019-.01237-.12337-.01856l-.06-.00922a2.941,2.941,0,0,1-1.18572-5.352q.58779-.38871,1.20251-.73557a19.758,19.758,0,0,1,2.2153-1.06752l.02084-.13623c.42826-2.84485-2.34959-2.71569-5.16987-3.2838-4.89571-.98619-21.66089,10.8532-22.63812,18.81619l-.01854.12959a68.06556,68.06556,0,0,0,.04938-10.99022,71.76441,71.76441,0,0,0-3.863-18.1792c4.39825,4.57354,21.96964-15.79581,16.48842-23.6219l-.06-.00926a2.94092,2.94092,0,0,1-1.18572-5.35192q.58779-.38873,1.20251-.73558-.0081-.077-.01654-.154a5.99918,5.99918,0,0,0-10.68523-2.94582c-2.75685,3.48327-9.88556,19.92816-9.30261,24.48182a70.30909,70.30909,0,0,0-7.33849-11.62592c-.15425-.19749-.3147-.38878-.469-.58627a24.89307,24.89307,0,0,0,3.44335-7.67646c.71577-3.215.327-6.825-1.734-9.39814-2.0549-2.57323-5.97954-3.72716-8.82429-2.061a6.21153,6.21153,0,0,0-2.03638,1.96843c.2839.35175.5677.6973.8516,1.04905a1.06964,1.06964,0,0,0,.08022.0926c.24681.30851.49981.61088.74667.91944q.24417.29965.48788.59975a2.14813,2.14813,0,0,1-1.76422,3.49966l-.04422-.002c-.11726-.00619-.24067-.01238-.35793-.01852-.37641-.02467-.759-.05552-1.13541-.10489.22215,1.339,1.23036,2.516,1.2897,3.87527.33368,7.64149,3.78919,8.24213,7.732,8.02207a69.85766,69.85766,0,0,1,13.85345,29.60753q.611,2.9898.95035,6.02892a66.65448,66.65448,0,0,1,.41344,7.43584,69.05778,69.05778,0,0,1-6.28191,28.6819A17.22466,17.22466,0,0,0,986,563.72984c-.55067-4.47323-13.28767-17.74135-15.28374-12.98174l-.059.14178.14856.59063a2.16814,2.16814,0,0,1-1.57133,3.75791Zm19.71578-38.77124-.00907-.02456.00907.01223Zm3.80738,34.37764c.0617-.42578.11107-.8516.16658-1.27738,0,.06789-.01233.13574-.01233.20368-.00619.24681-.00619.48748,0,.72815l-.14811.33317Z" transform="translate(-178.92207 -140.1914)" fill="#f2f2f2"/></svg>
<path d="M486.273 50.3514C486.273 50.3514 373.583 10.2809 262.965 74.0755C152.346 137.87 96.5321 264.51 48.6005 365.955C0.670477 467.399 28.2602 570.585 112.702 617.634C197.143 664.684 254.562 595.326 373.022 591.95C491.481 588.572 523.34 605.508 621.637 538.589C719.934 471.67 737.704 313.63 660.163 196.691C582.621 79.7524 486.273 50.3514 486.273 50.3514Z" fill="#5AE4A7"/>
<g opacity="0.699997">
<g opacity="0.699997">
<path opacity="0.699997" d="M486.273 50.3514C486.273 50.3514 373.583 10.2809 262.965 74.0755C152.346 137.87 96.5321 264.51 48.6005 365.955C0.670477 467.399 28.2602 570.585 112.702 617.634C197.143 664.684 254.562 595.326 373.022 591.95C491.481 588.572 523.34 605.508 621.637 538.589C719.934 471.67 737.704 313.63 660.163 196.691C582.621 79.7524 486.273 50.3514 486.273 50.3514Z" fill="white"/>
</g>
</g>
<path d="M59.5929 412.492C59.5929 412.492 62.3083 417.62 59.8958 422.448C57.4802 427.274 54.4649 432.103 56.2747 434.515C58.0845 436.929 63.5154 439.946 62.9111 445.075C62.3083 450.204 55.0677 460.462 59.5929 466.195C64.1182 471.927 71.6617 471.626 71.9631 477.962C72.2645 484.297 64.7224 489.427 66.8336 495.158C68.9462 500.891 81.315 502.098 81.315 506.019C81.315 509.943 76.4883 514.166 80.4108 518.389C84.3333 522.615 103.308 533.634 106.025 529.109C108.739 524.582 114.202 512.054 110.608 494.284C110.004 491.296 105.754 490.634 105.151 486.41C104.547 482.185 106.358 474.644 103.34 470.419C100.323 466.195 90.6683 464.686 90.0655 461.367C89.4627 458.048 93.6866 449.902 89.4627 444.774C85.2374 439.645 75.2813 437.231 75.2813 433.912C75.2813 430.594 78.2996 426.369 74.0743 421.844C69.8504 417.318 59.5929 412.492 59.5929 412.492Z" fill="#5AE4A7"/>
<path d="M74.0427 448.044C80.3224 467.01 91.3298 492.703 95.7982 505.115C101.228 520.201 105.949 531.122 108.364 546.206C110.776 561.29 112.089 662.324 112.089 662.324" stroke="#1A2535" stroke-width="1.33333" stroke-miterlimit="10" stroke-linecap="round" stroke-linejoin="round"/>
<path d="M61.1015 414.302C61.1015 414.302 66.2295 418.524 70.7562 436.929C71.0474 438.115 71.3837 439.37 71.7579 440.682" stroke="#1A2535" stroke-width="1.33333" stroke-miterlimit="10" stroke-linecap="round" stroke-linejoin="round"/>
<path d="M153.902 446.864C153.902 446.864 151.73 450.969 153.661 454.833C155.593 458.695 158.007 462.558 156.558 464.49C155.109 466.422 150.763 468.838 151.247 472.941C151.73 477.045 157.525 485.256 153.902 489.844C150.281 494.432 144.245 494.19 144.003 499.26C143.761 504.331 149.798 508.435 148.107 513.022C146.417 517.611 136.518 518.576 136.518 521.715C136.518 524.853 140.38 528.235 137.243 531.615C134.104 534.994 118.917 543.815 116.744 540.192C114.571 536.57 110.199 526.545 113.076 512.323C113.559 509.932 116.961 509.401 117.443 506.021C117.926 502.64 116.477 496.604 118.891 493.225C121.307 489.844 129.032 488.635 129.516 485.979C129.999 483.324 126.618 476.804 129.999 472.701C133.378 468.596 141.347 466.664 141.347 464.007C141.347 461.351 138.933 457.972 142.312 454.351C145.693 450.728 153.902 446.864 153.902 446.864Z" fill="#5AE4A7"/>
<path d="M142.338 475.317C137.312 490.496 128.505 511.058 124.927 520.99C120.583 533.064 116.804 541.802 114.872 553.876C112.942 565.949 111.889 646.803 111.889 646.803" stroke="#1A2535" stroke-width="1.33333" stroke-miterlimit="10" stroke-linecap="round" stroke-linejoin="round"/>
<path d="M152.695 448.313C152.695 448.313 148.591 451.694 144.968 466.423C144.735 467.372 144.467 468.375 144.167 469.425" stroke="#1A2535" stroke-width="1.33333" stroke-miterlimit="10" stroke-linecap="round" stroke-linejoin="round"/>
<path d="M70.874 515.232C70.874 515.232 72.6896 518.661 71.0764 521.889C69.4617 525.117 67.4451 528.345 68.6551 529.958C69.865 531.573 73.4963 533.589 73.0929 537.02C72.6896 540.449 67.8484 547.306 70.874 551.14C73.8996 554.974 78.9432 554.771 79.1455 559.007C79.3465 563.245 74.3029 566.674 75.7152 570.506C77.1275 574.34 85.3991 575.145 85.3991 577.769C85.3991 580.391 82.1711 583.214 84.7934 586.04C87.4156 588.863 100.103 596.232 101.919 593.207C103.734 590.18 107.388 581.803 104.984 569.921C104.579 567.923 101.738 567.481 101.335 564.656C100.932 561.831 102.143 556.789 100.125 553.965C98.1085 551.14 91.6526 550.132 91.2493 547.912C90.846 545.693 93.6691 540.248 90.846 536.817C88.0213 533.388 81.3645 531.774 81.3645 529.555C81.3645 527.336 83.381 524.511 80.5564 521.486C77.7332 518.46 70.874 515.232 70.874 515.232Z" fill="#5AE4A7"/>
<path d="M80.5357 539.004C84.7348 551.686 92.0934 568.864 95.0812 577.163C98.7124 587.25 101.869 594.551 103.484 604.638C105.097 614.725 105.975 652.163 105.975 652.163" stroke="#1A2535" stroke-width="1.33333" stroke-miterlimit="10" stroke-linecap="round" stroke-linejoin="round"/>
<path d="M71.8829 516.442C71.8829 516.442 75.3117 519.267 78.3388 531.573C78.5324 532.366 78.7581 533.205 79.0085 534.082" stroke="#1A2535" stroke-width="1.33333" stroke-miterlimit="10" stroke-linecap="round" stroke-linejoin="round"/>
<path d="M174.785 510.209C174.785 510.209 172.232 513.131 173.065 516.643C173.898 520.153 175.122 523.758 173.575 525.051C172.027 526.345 168.03 527.478 167.639 530.909C167.247 534.339 170.389 542.124 166.567 545.163C162.744 548.201 157.88 546.85 156.714 550.929C155.549 555.007 159.674 559.5 157.422 562.907C155.169 566.316 146.934 565.208 146.333 567.76C145.733 570.314 148.229 573.802 145.03 575.95C141.831 578.1 127.794 582.369 126.719 579.008C125.645 575.646 124.005 566.656 129.065 555.639C129.915 553.788 132.782 554.005 133.822 551.349C134.86 548.692 134.836 543.506 137.446 541.219C140.056 538.931 146.572 539.425 147.472 537.357C148.371 535.291 146.87 529.342 150.404 526.65C153.938 523.958 160.787 523.91 161.295 521.75C161.803 519.59 160.485 516.379 163.927 514.079C167.369 511.78 174.785 510.209 174.785 510.209Z" fill="#5AE4A7"/>
<path d="M159.939 531.137C152.949 542.522 141.854 557.559 137.046 564.956C131.203 573.942 124.194 579.692 122.579 589.778C120.966 599.865 120.088 637.303 120.088 637.303" stroke="#1A2535" stroke-width="1.33333" stroke-miterlimit="10" stroke-linecap="round" stroke-linejoin="round"/>
<path d="M173.526 511.156C173.526 511.156 169.541 513.12 163.779 524.407C163.408 525.135 162.997 525.899 162.553 526.695" stroke="#1A2535" stroke-width="1.33333" stroke-miterlimit="10" stroke-linecap="round" stroke-linejoin="round"/>
<path d="M103.128 673.694H125.566C137.373 667.602 145.76 652.194 145.76 634.136C145.76 622.283 142.144 611.574 136.323 603.888H92.371C86.5499 611.574 82.9346 622.283 82.9346 634.136C82.9346 652.194 91.3212 667.602 103.128 673.694Z" fill="white"/>
<path d="M103.128 673.694H125.566C137.373 667.602 145.76 652.194 145.76 634.136C145.76 622.283 142.144 611.574 136.323 603.888H92.371C86.5499 611.574 82.9346 622.283 82.9346 634.136C82.9346 652.194 91.3212 667.602 103.128 673.694Z" stroke="#1A2535" stroke-width="1.33333" stroke-miterlimit="10" stroke-linecap="round" stroke-linejoin="round"/>
<path d="M125.975 677.04H103.128V673.694H125.975V677.04Z" fill="white" stroke="#1A2535" stroke-width="1.33333" stroke-miterlimit="10" stroke-linecap="round" stroke-linejoin="round"/>
<path d="M437.35 379.9H79.6971V109.2H437.35V379.9Z" stroke="#1A2535" stroke-width="1.33333" stroke-miterlimit="10" stroke-linecap="round" stroke-linejoin="round"/>
<path d="M429.002 372.727H88.0472V116.371H429.002V372.727Z" stroke="#1A2535" stroke-width="1.33333" stroke-miterlimit="10" stroke-linecap="round" stroke-linejoin="round"/>
<path d="M191.973 153.995C191.973 153.995 136.269 149.967 131.572 158.693C126.874 167.418 130.23 327.144 132.913 329.157C135.598 331.172 210.764 332.513 218.148 329.829C225.529 327.144 215.463 164.733 215.463 160.034C215.463 155.337 198.012 153.324 198.012 153.324" stroke="#1A2535" stroke-width="2.66667" stroke-miterlimit="10" stroke-linecap="round" stroke-linejoin="round"/>
<path d="M137.33 286.208C137.44 307.266 137.899 322.697 138.955 323.117C142.309 324.46 213.449 330.499 215.463 323.79C217.475 317.078 210.093 165.404 210.093 165.404" stroke="#1A2535" stroke-width="2.66667" stroke-miterlimit="10" stroke-linecap="round" stroke-linejoin="round"/>
<path d="M207.409 164.733C207.409 164.733 139.625 162.048 138.954 165.404C138.527 167.541 137.282 230.432 137.303 276.14" stroke="#1A2535" stroke-width="2.66667" stroke-miterlimit="10" stroke-linecap="round" stroke-linejoin="round"/>
<path d="M140.968 176.813H206.738" stroke="#1A2535" stroke-width="2.66667" stroke-miterlimit="10" stroke-linecap="round" stroke-linejoin="round"/>
<path d="M200.698 173.775C196.67 178.028 200.698 173.775 203.383 167.699C206.067 161.623 200.698 168.915 194.658 173.775C188.617 178.635 191.973 174.99 193.987 168.306C195.999 161.623 191.973 168.306 186.604 172.561C181.235 176.812 183.92 174.99 185.932 167.699C187.946 160.409 185.932 167.699 177.879 172.561C169.826 177.42 173.853 177.42 177.879 170.129C181.907 162.839 175.194 170.129 167.812 172.561C160.431 174.99 167.812 172.561 170.497 165.876C173.182 159.193 165.799 167.699 160.431 171.345C155.061 174.99 160.431 171.345 161.773 167.092C163.115 162.839 158.417 168.306 153.047 173.775C147.679 179.243 153.047 173.775 153.718 168.915C154.39 164.054 147.679 176.812 147.679 176.812C147.679 176.812 149.693 164.662 148.35 167.699C147.008 170.738 144.994 173.168 144.994 173.168" stroke="#5AE4A7" stroke-width="2.66667" stroke-miterlimit="10" stroke-linecap="round" stroke-linejoin="round"/>
<path d="M177.208 222.449H144.323V188.221H177.208V222.449Z" stroke="#5AE4A7" stroke-width="2.66667" stroke-miterlimit="10" stroke-linecap="round" stroke-linejoin="round"/>
<path d="M151.034 188.222L145.665 194.262L157.074 190.236L145.665 200.974L164.457 188.893L145.665 209.027L171.168 190.236L144.324 215.066L176.538 192.921L144.324 222.45L176.538 200.974L153.719 221.107L177.209 208.356L162.444 220.436L176.538 215.738L173.853 220.436" stroke="#5AE4A7" stroke-width="2.66667" stroke-miterlimit="10" stroke-linecap="round" stroke-linejoin="round"/>
<path d="M205.554 319.091H180.407V292.918H205.554V319.091Z" stroke="#5AE4A7" stroke-width="2.66667" stroke-miterlimit="10" stroke-linecap="round" stroke-linejoin="round"/>
<path d="M185.538 292.918L181.432 297.536L190.157 294.457L181.432 302.669L195.802 293.43L181.432 308.827L200.934 294.457L180.406 313.446L205.04 296.51L180.406 319.091L205.04 302.669L187.591 318.064L205.554 308.313L194.263 317.552L205.04 313.96L202.987 317.552" stroke="#5AE4A7" stroke-width="2.66667" stroke-miterlimit="10" stroke-linecap="round" stroke-linejoin="round"/>
<path d="M143.652 235.201H208.08" stroke="#1A2535" stroke-width="2.66667" stroke-miterlimit="10" stroke-linecap="round" stroke-linejoin="round"/>
<path d="M142.981 241.241L206.738 241.912" stroke="#1A2535" stroke-width="2.66667" stroke-miterlimit="10" stroke-linecap="round" stroke-linejoin="round"/>
<path d="M183.92 190.236H204.724" stroke="#1A2535" stroke-width="2.66667" stroke-miterlimit="10" stroke-linecap="round" stroke-linejoin="round"/>
<path d="M183.92 198.289H204.724" stroke="#1A2535" stroke-width="2.66667" stroke-miterlimit="10" stroke-linecap="round" stroke-linejoin="round"/>
<path d="M183.92 206.343H204.724" stroke="#1A2535" stroke-width="2.66667" stroke-miterlimit="10" stroke-linecap="round" stroke-linejoin="round"/>
<path d="M183.92 214.396H204.724" stroke="#1A2535" stroke-width="2.66667" stroke-miterlimit="10" stroke-linecap="round" stroke-linejoin="round"/>
<path d="M206.737 275.468H144.323V245.268H206.737V275.468Z" stroke="#5AE4A7" stroke-width="2.66667" stroke-miterlimit="10" stroke-linecap="round" stroke-linejoin="round"/>
<path d="M143.652 251.308L152.376 245.938L142.31 261.375L159.089 245.938L144.323 268.085L170.496 245.268L147.679 272.113L175.866 245.938L154.39 272.113L185.262 245.268L160.429 274.798L191.303 245.938L167.813 273.455L199.356 245.268L175.195 274.798L206.738 245.268L183.919 274.126L205.395 255.335L191.303 272.784L205.395 263.388L202.63 267.882L200.027 272.113" stroke="#5AE4A7" stroke-width="2.66667" stroke-miterlimit="10" stroke-linecap="round" stroke-linejoin="round"/>
<path d="M147.008 283.521H204.725" stroke="#1A2535" stroke-width="2.66667" stroke-miterlimit="10" stroke-linecap="round" stroke-linejoin="round"/>
<path d="M145.665 290.904H164.456" stroke="#1A2535" stroke-width="2.66667" stroke-miterlimit="10" stroke-linecap="round" stroke-linejoin="round"/>
<path d="M218.147 168.76L264.221 163.102" stroke="#1A2535" stroke-width="2.66667" stroke-miterlimit="10" stroke-linecap="round" stroke-linejoin="round"/>
<path d="M210.765 201.645H259.086" stroke="#1A2535" stroke-width="2.66667" stroke-miterlimit="10" stroke-linecap="round" stroke-linejoin="round"/>
<path d="M134.256 262.717L113.452 270.099" stroke="#1A2535" stroke-width="2.66667" stroke-miterlimit="10" stroke-linecap="round" stroke-linejoin="round"/>
<path d="M193.315 323.789C193.315 323.789 189.288 344.594 216.805 349.962" stroke="#1A2535" stroke-width="2.66667" stroke-miterlimit="10" stroke-linecap="round" stroke-linejoin="round"/>
<path d="M212.778 344.594L219.489 350.633L210.093 353.318" stroke="#1A2535" stroke-width="2.66667" stroke-miterlimit="10" stroke-linecap="round" stroke-linejoin="round"/>
<path d="M253.045 195.605L263.783 202.315L254.388 206.343" stroke="#1A2535" stroke-width="2.66667" stroke-miterlimit="10" stroke-linecap="round" stroke-linejoin="round"/>
<path d="M255.496 161.088L266.905 162.43L258.852 169.812" stroke="#1A2535" stroke-width="2.66667" stroke-miterlimit="10" stroke-linecap="round" stroke-linejoin="round"/>
<path d="M116.136 263.388L104.727 272.784L118.821 273.455" stroke="#1A2535" stroke-width="2.66667" stroke-miterlimit="10" stroke-linecap="round" stroke-linejoin="round"/>
<path d="M292.641 222.449H267.138V195.605H292.641V222.449Z" fill="#5AE4A7"/>
<path d="M273.179 201.645L287.944 202.316" stroke="#1A2535" stroke-width="2.66667" stroke-miterlimit="10" stroke-linecap="round" stroke-linejoin="round"/>
<path d="M273.179 207.014L287.944 207.685" stroke="#1A2535" stroke-width="2.66667" stroke-miterlimit="10" stroke-linecap="round" stroke-linejoin="round"/>
<path d="M273.179 212.383L287.944 213.054" stroke="#1A2535" stroke-width="2.66667" stroke-miterlimit="10" stroke-linecap="round" stroke-linejoin="round"/>
<path d="M255.201 258.446L229.874 261.433L226.729 234.773L252.056 231.786L255.201 258.446Z" fill="#5AE4A7"/>
<path d="M233.436 240.064L248.178 239.002" stroke="#1A2535" stroke-width="2.66667" stroke-miterlimit="10" stroke-linecap="round" stroke-linejoin="round"/>
<path d="M234.064 245.396L248.806 244.334" stroke="#1A2535" stroke-width="2.66667" stroke-miterlimit="10" stroke-linecap="round" stroke-linejoin="round"/>
<path d="M234.693 250.728L249.435 249.666" stroke="#1A2535" stroke-width="2.66667" stroke-miterlimit="10" stroke-linecap="round" stroke-linejoin="round"/>
<path d="M122.989 304.083L97.6622 307.069L94.5173 280.41L119.846 277.422L122.989 304.083Z" fill="#5AE4A7"/>
<path d="M101.224 285.701L115.966 284.638" stroke="#1A2535" stroke-width="2.66667" stroke-miterlimit="10" stroke-linecap="round" stroke-linejoin="round"/>
<path d="M101.852 291.033L116.594 289.97" stroke="#1A2535" stroke-width="2.66667" stroke-miterlimit="10" stroke-linecap="round" stroke-linejoin="round"/>
<path d="M102.482 296.365L117.224 295.302" stroke="#1A2535" stroke-width="2.66667" stroke-miterlimit="10" stroke-linecap="round" stroke-linejoin="round"/>
<path d="M248.871 359.96L223.511 357.265L226.347 330.57L251.708 333.265L248.871 359.96Z" fill="#5AE4A7"/>
<path d="M231.716 337.215L246.327 339.442" stroke="#1A2535" stroke-width="2.66667" stroke-miterlimit="10" stroke-linecap="round" stroke-linejoin="round"/>
<path d="M231.149 342.554L245.76 344.782" stroke="#1A2535" stroke-width="2.66667" stroke-miterlimit="10" stroke-linecap="round" stroke-linejoin="round"/>
<path d="M230.581 347.893L245.192 350.121" stroke="#1A2535" stroke-width="2.66667" stroke-miterlimit="10" stroke-linecap="round" stroke-linejoin="round"/>
<path d="M437.337 389.045H79.6971V379.9H437.337V389.045Z" fill="#1A2535" stroke="#1A2535" stroke-width="1.33333" stroke-miterlimit="10" stroke-linecap="round" stroke-linejoin="round"/>
<path d="M580.859 445.436V428.365H529.501V445.436C529.501 451.007 527.579 456.415 524.045 460.783L521.797 463.562H588.562L586.313 460.783C582.781 456.415 580.859 451.007 580.859 445.436Z" fill="#1A2535"/>
<path d="M580.859 445.436V428.365H529.501V445.436C529.501 451.007 527.579 456.415 524.045 460.783L521.797 463.562H588.562L586.313 460.783C582.781 456.415 580.859 451.007 580.859 445.436Z" stroke="#1A2535" stroke-width="1.33333" stroke-miterlimit="10" stroke-linecap="round" stroke-linejoin="round"/>
<path d="M577.947 445.436V428.365H526.589V445.436C526.589 451.007 524.667 456.415 521.134 460.783L518.885 463.562H585.65L583.401 460.783C579.869 456.415 577.947 451.007 577.947 445.436Z" fill="white"/>
<path d="M577.947 445.436V428.365H526.589V445.436C526.589 451.007 524.667 456.415 521.134 460.783L518.885 463.562H585.65L583.401 460.783C579.869 456.415 577.947 451.007 577.947 445.436Z" stroke="#1A2535" stroke-width="1.33333" stroke-miterlimit="10" stroke-linecap="round" stroke-linejoin="round"/>
<path d="M578.36 438.418H526.798V433.186H578.36V438.418Z" fill="#1A2535"/>
<path d="M643.12 433.749H461.417C454.595 433.749 449.064 428.217 449.064 421.396V294.542C449.064 287.719 454.595 282.189 461.417 282.189H643.12C649.942 282.189 655.472 287.719 655.472 294.542V421.396C655.472 428.217 649.942 433.749 643.12 433.749Z" fill="#1A2535"/>
<path d="M643.12 433.749H461.417C454.595 433.749 449.064 428.217 449.064 421.396V294.542C449.064 287.719 454.595 282.189 461.417 282.189H643.12C649.942 282.189 655.472 287.719 655.472 294.542V421.396C655.472 428.217 649.942 433.749 643.12 433.749Z" stroke="#1A2535" stroke-width="1.33333" stroke-miterlimit="10" stroke-linecap="round" stroke-linejoin="round"/>
<path d="M648.655 433.749H466.954C460.131 433.749 454.601 428.217 454.601 421.396V294.542C454.601 287.719 460.131 282.189 466.954 282.189H648.655C655.479 282.189 661.008 287.719 661.008 294.542V421.396C661.008 428.217 655.479 433.749 648.655 433.749Z" fill="#1A2535"/>
<path d="M648.655 433.749H466.954C460.131 433.749 454.601 428.217 454.601 421.396V294.542C454.601 287.719 460.131 282.189 466.954 282.189H648.655C655.479 282.189 661.008 287.719 661.008 294.542V421.396C661.008 428.217 655.479 433.749 648.655 433.749Z" stroke="#1A2535" stroke-width="1.33333" stroke-miterlimit="10" stroke-linecap="round" stroke-linejoin="round"/>
<path d="M643.12 433.749H461.417C454.595 433.749 449.064 428.217 449.064 421.396V410.189H655.472V421.396C655.472 428.217 649.942 433.749 643.12 433.749Z" fill="white"/>
<path d="M643.12 433.749H461.417C454.595 433.749 449.064 428.217 449.064 421.396V410.189H655.472V421.396C655.472 428.217 649.942 433.749 643.12 433.749Z" stroke="#1A2535" stroke-width="1.33333" stroke-miterlimit="10" stroke-linecap="round" stroke-linejoin="round"/>
<path d="M645.091 398.694H459.447V291.616H645.091V398.694Z" fill="white"/>
<path d="M524.06 387.04H487.525C485.083 387.04 483.106 385.061 483.106 382.621V307.192C483.106 304.751 485.083 302.773 487.525 302.773H524.06C526.502 302.773 528.481 304.751 528.481 307.192V382.621C528.481 385.061 526.502 387.04 524.06 387.04Z" fill="#1A2535"/>
<path d="M524.674 379.969H486.914V309.844H524.674V379.969Z" fill="#5AE4A7"/>
<path d="M574.444 314.557H540.265V311.022H574.444V314.557Z" fill="#1A2535"/>
<path d="M556.767 335.183H540.856V318.682H556.767V335.183Z" fill="#5AE4A7"/>
<path d="M572.087 378.2H563.564V369.362H572.087V378.2Z" fill="#5AE4A7"/>
<path d="M573.658 363.469H541.248V346.969H573.658V363.469Z" fill="#5AE4A7"/>
<path d="M559.713 319.861H572.677" stroke="#1A2535" stroke-width="1.33333" stroke-miterlimit="10" stroke-linecap="round" stroke-linejoin="round"/>
<path d="M559.713 323.986H572.677" stroke="#1A2535" stroke-width="1.33333" stroke-miterlimit="10" stroke-linecap="round" stroke-linejoin="round"/>
<path d="M559.713 328.111H572.677" stroke="#1A2535" stroke-width="1.33333" stroke-miterlimit="10" stroke-linecap="round" stroke-linejoin="round"/>
<path d="M559.713 332.237H572.677" stroke="#1A2535" stroke-width="1.33333" stroke-miterlimit="10" stroke-linecap="round" stroke-linejoin="round"/>
<path d="M541.838 341.665H573.069" stroke="#1A2535" stroke-width="1.33333" stroke-miterlimit="10" stroke-linecap="round" stroke-linejoin="round"/>
<path d="M541.838 367.593H573.069" stroke="#1A2535" stroke-width="1.33333" stroke-miterlimit="10" stroke-linecap="round" stroke-linejoin="round"/>
<path d="M577.391 381.737H537.321V307.487H577.391V381.737Z" stroke="#1A2535" stroke-width="1.33333" stroke-miterlimit="10" stroke-linecap="round" stroke-linejoin="round"/>
<path d="M626.301 335.183H588.588V307.487H626.301V335.183Z" fill="#C0C0C0"/>
<path d="M626.301 313.379H588.588V307.487H626.301V313.379Z" fill="#1A2535"/>
<path d="M601.369 327.216H591.51V317.676H601.369V327.216Z" stroke="#1A2535" stroke-width="1.33333" stroke-miterlimit="10" stroke-linecap="round" stroke-linejoin="round"/>
<path d="M621.084 327.216H611.226V317.676H621.084V327.216Z" stroke="#1A2535" stroke-width="1.33333" stroke-miterlimit="10" stroke-linecap="round" stroke-linejoin="round"/>
<path d="M622.674 310.84C622.674 311.63 622.034 312.271 621.245 312.271C620.454 312.271 619.812 311.63 619.812 310.84C619.812 310.049 620.454 309.408 621.245 309.408C622.034 309.408 622.674 310.049 622.674 310.84Z" fill="white"/>
<path d="M615.838 310.84C615.838 311.63 615.197 312.271 614.407 312.271C613.618 312.271 612.976 311.63 612.976 310.84C612.976 310.049 613.618 309.408 614.407 309.408C615.197 309.408 615.838 310.049 615.838 310.84Z" fill="white"/>
<path d="M623.289 371.404H594.412V350.196H623.289V371.404Z" fill="#C0C0C0"/>
<path d="M623.289 354.708H594.412V350.196H623.289V354.708Z" fill="#1A2535"/>
<path d="M620.512 352.764C620.512 353.369 620.021 353.859 619.417 353.859C618.811 353.859 618.321 353.369 618.321 352.764C618.321 352.158 618.811 351.667 619.417 351.667C620.021 351.667 620.512 352.158 620.512 352.764Z" fill="white"/>
<path d="M615.277 352.764C615.277 353.369 614.786 353.859 614.182 353.859C613.576 353.859 613.085 353.369 613.085 352.764C613.085 352.158 613.576 351.667 614.182 351.667C614.786 351.667 615.277 352.158 615.277 352.764Z" fill="white"/>
<path d="M465.556 392.361H477.689V297.237H465.556V392.361Z" fill="#C0C0C0"/>
<path d="M465.556 301.605H477.689V297.237H465.556V301.605Z" fill="#1A2535"/>
<path d="M474.292 311.312H468.468V304.517H474.292V311.312Z" stroke="#1A2535" stroke-width="1.33333" stroke-miterlimit="10" stroke-linecap="round" stroke-linejoin="round"/>
<path d="M474.292 322.473H468.468V315.678H474.292V322.473Z" stroke="#1A2535" stroke-width="1.33333" stroke-miterlimit="10" stroke-linecap="round" stroke-linejoin="round"/>
<path d="M474.292 333.637H468.468V326.841H474.292V333.637Z" stroke="#1A2535" stroke-width="1.33333" stroke-miterlimit="10" stroke-linecap="round" stroke-linejoin="round"/>
<path d="M474.292 344.8H468.468V338.005H474.292V344.8Z" stroke="#1A2535" stroke-width="1.33333" stroke-miterlimit="10" stroke-linecap="round" stroke-linejoin="round"/>
<path d="M474.292 355.961H468.468V349.166H474.292V355.961Z" stroke="#1A2535" stroke-width="1.33333" stroke-miterlimit="10" stroke-linecap="round" stroke-linejoin="round"/>
<path d="M474.292 367.125H468.468V360.329H474.292V367.125Z" stroke="#1A2535" stroke-width="1.33333" stroke-miterlimit="10" stroke-linecap="round" stroke-linejoin="round"/>
<path d="M474.292 378.288H468.468V371.494H474.292V378.288Z" stroke="#1A2535" stroke-width="1.33333" stroke-miterlimit="10" stroke-linecap="round" stroke-linejoin="round"/>
<path d="M474.292 389.449H468.468V382.654H474.292V389.449Z" stroke="#1A2535" stroke-width="1.33333" stroke-miterlimit="10" stroke-linecap="round" stroke-linejoin="round"/>
<path d="M639.79 296.265H485.454V300.149H639.79V296.265Z" fill="#C0C0C0"/>
<path d="M639.79 390.421H485.454V394.302H639.79V390.421Z" fill="#C0C0C0"/>
<path d="M585.664 466.612H518.885V463.563H585.664V466.612Z" fill="#1A2535" stroke="#1A2535" stroke-width="1.33333" stroke-miterlimit="10" stroke-linecap="round" stroke-linejoin="round"/>
<path d="M629.309 461.076H474.285V466.612H629.309V461.076Z" fill="white" stroke="#1A2535" stroke-width="1.33333" stroke-miterlimit="10" stroke-linecap="round" stroke-linejoin="round"/>
<path d="M335.382 677.04H329.073L325.918 483.877H338.537L335.382 677.04Z" fill="white"/>
<path d="M335.382 677.04H329.073L325.918 483.877H338.537L335.382 677.04Z" stroke="#1A2535" stroke-width="1.33333" stroke-miterlimit="10" stroke-linecap="round" stroke-linejoin="round"/>
<path d="M335.382 677.04H332.597L332.968 483.877H338.537L335.382 677.04Z" fill="#1A2535"/>
<path d="M335.382 677.04H332.597L332.968 483.877H338.537L335.382 677.04Z" stroke="#1A2535" stroke-width="1.33333" stroke-miterlimit="10" stroke-linecap="round" stroke-linejoin="round"/>
<path d="M425.259 677.04H418.95L415.795 483.877H428.414L425.259 677.04Z" fill="white"/>
<path d="M425.259 677.04H418.95L415.795 483.877H428.414L425.259 677.04Z" stroke="#1A2535" stroke-width="1.33333" stroke-miterlimit="10" stroke-linecap="round" stroke-linejoin="round"/>
<path d="M425.259 677.04H422.475L422.845 483.877H428.414L425.259 677.04Z" fill="#1A2535"/>
<path d="M425.259 677.04H422.475L422.845 483.877H428.414L425.259 677.04Z" stroke="#1A2535" stroke-width="1.33333" stroke-miterlimit="10" stroke-linecap="round" stroke-linejoin="round"/>
<path d="M393.073 677.04H386.764L383.609 483.877H396.228L393.073 677.04Z" fill="#1A2535"/>
<path d="M393.073 677.04H386.764L383.609 483.877H396.228L393.073 677.04Z" stroke="#1A2535" stroke-width="1.33333" stroke-miterlimit="10" stroke-linecap="round" stroke-linejoin="round"/>
<path d="M393.073 677.04H390.289L390.659 483.877H396.228L393.073 677.04Z" fill="#1A2535"/>
<path d="M393.073 677.04H390.289L390.659 483.877H396.228L393.073 677.04Z" stroke="#1A2535" stroke-width="1.33333" stroke-miterlimit="10" stroke-linecap="round" stroke-linejoin="round"/>
<path d="M453.8 677.04H447.491L444.336 483.877H456.955L453.8 677.04Z" fill="#1A2535"/>
<path d="M453.8 677.04H447.491L444.336 483.877H456.955L453.8 677.04Z" stroke="#1A2535" stroke-width="1.33333" stroke-miterlimit="10" stroke-linecap="round" stroke-linejoin="round"/>
<path d="M453.8 677.04H451.016L451.386 483.877H456.955L453.8 677.04Z" fill="#1A2535"/>
<path d="M453.8 677.04H451.016L451.386 483.877H456.955L453.8 677.04Z" stroke="#1A2535" stroke-width="1.33333" stroke-miterlimit="10" stroke-linecap="round" stroke-linejoin="round"/>
<path d="M359.555 607.669H458.541V486.821H359.555V607.669Z" fill="#1A2535" stroke="#1A2535" stroke-width="1.33333" stroke-miterlimit="10" stroke-linecap="round" stroke-linejoin="round"/>
<path d="M332.227 607.669H431.213V486.821H332.227V607.669Z" fill="white" stroke="#1A2535" stroke-width="1.33333" stroke-miterlimit="10" stroke-linecap="round" stroke-linejoin="round"/>
<path d="M631.125 677.04H624.814L621.661 483.877H634.278L631.125 677.04Z" fill="white"/>
<path d="M631.125 677.04H624.814L621.661 483.877H634.278L631.125 677.04Z" stroke="#1A2535" stroke-width="1.33333" stroke-miterlimit="10" stroke-linecap="round" stroke-linejoin="round"/>
<path d="M631.125 677.04H628.339L628.709 483.877H634.278L631.125 677.04Z" fill="#1A2535"/>
<path d="M631.125 677.04H628.339L628.709 483.877H634.278L631.125 677.04Z" stroke="#1A2535" stroke-width="1.33333" stroke-miterlimit="10" stroke-linecap="round" stroke-linejoin="round"/>
<path d="M688.816 677.04H682.506L679.352 483.877H691.97L688.816 677.04Z" fill="#1A2535"/>
<path d="M688.816 677.04H682.506L679.352 483.877H691.97L688.816 677.04Z" stroke="#1A2535" stroke-width="1.33333" stroke-miterlimit="10" stroke-linecap="round" stroke-linejoin="round"/>
<path d="M688.816 677.04H686.031L686.4 483.877H691.97L688.816 677.04Z" fill="#1A2535"/>
<path d="M688.816 677.04H686.031L686.4 483.877H691.97L688.816 677.04Z" stroke="#1A2535" stroke-width="1.33333" stroke-miterlimit="10" stroke-linecap="round" stroke-linejoin="round"/>
<path d="M695.951 489.879H317.594V476.591H695.951V489.879Z" fill="white" stroke="#1A2535" stroke-width="1.33333" stroke-miterlimit="10" stroke-linecap="round" stroke-linejoin="round"/>
<path d="M695.951 483.235H317.594V476.592H695.951V483.235Z" fill="#1A2535" stroke="#1A2535" stroke-width="1.33333" stroke-miterlimit="10" stroke-linecap="round" stroke-linejoin="round"/>
<path d="M695.95 489.879H640.104V476.591H695.95V489.879Z" fill="#1A2535" stroke="#1A2535" stroke-width="1.33333" stroke-miterlimit="10" stroke-linecap="round" stroke-linejoin="round"/>
<path d="M708.174 479.202H307.328V465.913H708.174V479.202Z" fill="white" stroke="#1A2535" stroke-width="1.33333" stroke-miterlimit="10" stroke-linecap="round" stroke-linejoin="round"/>
<path d="M708.174 479.202H652.329V465.913H708.174V479.202Z" fill="#1A2535" stroke="#1A2535" stroke-width="1.33333" stroke-miterlimit="10" stroke-linecap="round" stroke-linejoin="round"/>
<path d="M425.152 540.661H338.52V498.437H425.152V540.661Z" fill="white" stroke="#1A2535" stroke-width="1.33333" stroke-miterlimit="10" stroke-linecap="round" stroke-linejoin="round"/>
<path d="M391.3 521.733H372.372V515.181H391.3V521.733Z" fill="#1A2535" stroke="#1A2535" stroke-width="1.33333" stroke-miterlimit="10" stroke-linecap="round" stroke-linejoin="round"/>
<path d="M425.152 593.805H338.52V551.581H425.152V593.805Z" fill="white" stroke="#1A2535" stroke-width="1.33333" stroke-miterlimit="10" stroke-linecap="round" stroke-linejoin="round"/>
<path d="M391.3 574.877H372.372V568.325H391.3V574.877Z" fill="#1A2535" stroke="#1A2535" stroke-width="1.33333" stroke-miterlimit="10" stroke-linecap="round" stroke-linejoin="round"/>
<path d="M558.517 564.152H584.402V512.093H558.517V564.152Z" fill="#1A2535"/>
<path d="M564.988 617.771H577.931V545.664H564.988V617.771Z" fill="#1A2535"/>
<path d="M576.722 612.224C576.722 612.224 587.596 624.562 615.55 628.864C630.318 631.136 645.686 633.962 659.027 641.025C667.61 645.568 684.686 655.508 684.686 666.865C684.686 672.485 680.132 677.041 674.513 677.041C668.894 677.041 664.339 672.485 664.339 666.865C664.339 664.18 665.4 661.754 667.101 659.935C665.684 657.628 656.428 643.708 636.945 639.473C615.683 634.85 600.163 636.734 570.252 616.845L576.722 612.224Z" fill="#1A2535"/>
<path d="M567.472 612.224C567.472 612.224 556.598 624.562 528.645 628.864C513.876 631.136 498.508 633.962 485.167 641.025C476.584 645.568 459.508 655.508 459.508 666.865C459.508 672.485 464.062 677.041 469.681 677.041C475.3 677.041 479.856 672.485 479.856 666.865C479.856 664.18 478.796 661.754 477.093 659.935C478.51 657.628 487.767 643.708 507.249 639.473C528.511 634.85 544.032 636.734 573.942 616.845L567.472 612.224Z" fill="#1A2535"/>
<path d="M567.028 657.944H576.817C577.342 657.944 577.771 658.371 577.771 658.898V676.086C577.771 676.613 577.342 677.04 576.817 677.04H567.028C566.501 677.04 566.073 676.613 566.073 676.086V658.898C566.073 658.371 566.501 657.944 567.028 657.944Z" fill="#1A2535"/>
<path d="M569.147 677.04H574.695V613.946H569.147V677.04Z" fill="#1A2535"/>
<path d="M634.151 361.76C631.163 378.134 628.858 396.044 628.315 413.972C627.906 427.478 627.68 439.056 627.481 449.27C626.86 480.984 626.517 498.577 621.521 503.315C620.881 503.746 616.754 506.3 608.093 507.019C605.674 507.221 597.997 507.332 587.544 507.383C554.388 507.286 519.543 507.01 518.987 507.006H516.966C516.877 507.083 516.81 507.163 516.729 507.239C496.819 507.13 491.69 507.009 491.323 507.006H489.302C485.125 510.633 487.622 515.292 491.249 515.327C493.979 515.352 541.43 515.738 573.878 515.738C579.625 515.738 585.022 515.726 589.818 515.697C597.704 515.723 605.229 515.738 611.734 515.738C628.728 515.738 642.804 515.633 646.64 515.312C658.649 514.314 664.032 510.254 664.609 509.796C672.615 502.685 672.919 487.095 673.656 449.431C673.856 439.239 674.08 427.686 674.489 414.227C675.035 396.191 677.41 378.159 680.46 361.76H634.151Z" fill="#1A2535"/>
<path d="M376.74 633.603L380.016 650.711C380.016 650.711 377.104 656.899 365.82 661.995C354.536 667.091 349.076 669.275 349.076 670.731C349.076 672.187 348.348 675.463 351.26 676.555C354.172 677.647 416.052 676.555 416.052 676.555C416.052 676.555 419.328 675.099 419.328 668.183C419.328 661.267 416.416 648.527 416.416 645.615C416.416 642.703 414.367 635.687 414.367 634.702C414.367 633.717 389.48 635.059 389.48 635.059C389.48 635.059 382.2 628.143 376.74 633.603Z" fill="white"/>
<path d="M376.74 633.603L380.016 650.711C380.016 650.711 377.104 656.899 365.82 661.995C354.536 667.091 349.076 669.275 349.076 670.731C349.076 672.187 348.348 675.463 351.26 676.555C354.172 677.647 416.052 676.555 416.052 676.555C416.052 676.555 419.328 675.099 419.328 668.183C419.328 661.267 416.416 648.527 416.416 645.615C416.416 642.703 414.367 635.687 414.367 634.702C414.367 633.717 389.48 635.059 389.48 635.059C389.48 635.059 382.2 628.143 376.74 633.603Z" stroke="#1A2535" stroke-width="1.33333" stroke-miterlimit="10" stroke-linecap="round" stroke-linejoin="round"/>
<path d="M389.48 635.059C389.48 635.059 391.3 651.439 392.392 652.531C393.484 653.623 416.416 653.623 416.416 653.623" fill="white"/>
<path d="M389.48 635.059C389.48 635.059 391.3 651.439 392.392 652.531C393.484 653.623 416.416 653.623 416.416 653.623" stroke="#1A2535" stroke-width="1.33333" stroke-miterlimit="10" stroke-linecap="round" stroke-linejoin="round"/>
<path d="M416.416 645.615L390.936 645.979L416.416 645.615Z" fill="white"/>
<path d="M416.416 645.615L390.936 645.979" stroke="#1A2535" stroke-width="1.33333" stroke-miterlimit="10" stroke-linecap="round" stroke-linejoin="round"/>
<path d="M349.076 673.643H418.6H349.076Z" fill="white"/>
<path d="M349.076 673.643H418.6" stroke="#1A2535" stroke-width="1.33333" stroke-miterlimit="10" stroke-linecap="round" stroke-linejoin="round"/>
<path d="M422.237 428.432C422.237 428.432 402.054 496.368 399.592 505.723C397.13 515.076 411.407 597.289 411.407 598.764C411.407 600.242 413.376 604.672 413.376 609.595C413.376 614.519 411.407 615.994 412.392 617.472C413.376 618.95 416.822 622.395 416.329 625.349C415.836 628.302 415.346 629.286 413.376 631.256C411.407 633.224 409.437 633.717 409.437 633.717H397.623C397.623 633.717 394.668 611.564 386.792 552.981C378.915 494.399 391.715 460.923 394.177 450.093C396.638 439.262 401.562 429.91 401.562 429.91L422.237 428.432Z" fill="#1A2535"/>
<path d="M422.237 428.432C422.237 428.432 402.054 496.368 399.592 505.723C397.13 515.076 411.407 597.289 411.407 598.764C411.407 600.242 413.376 604.672 413.376 609.595C413.376 614.519 411.407 615.994 412.392 617.472C413.376 618.95 416.822 622.395 416.329 625.349C415.836 628.302 415.346 629.286 413.376 631.256C411.407 633.224 409.437 633.717 409.437 633.717H397.623C397.623 633.717 394.668 611.564 386.792 552.981C378.915 494.399 391.715 460.923 394.177 450.093C396.638 439.262 401.562 429.91 401.562 429.91L422.237 428.432Z" stroke="#1A2535" stroke-width="1.33333" stroke-miterlimit="10" stroke-linecap="round" stroke-linejoin="round"/>
<path d="M359.996 633.603L363.272 650.711C363.272 650.711 360.36 656.899 349.076 661.995C337.792 667.091 332.332 669.275 332.332 670.731C332.332 672.187 331.604 675.463 334.516 676.555C337.428 677.647 399.308 676.555 399.308 676.555C399.308 676.555 402.584 675.099 402.584 668.183C402.584 661.267 399.672 648.527 399.672 645.615C399.672 642.703 397.623 635.687 397.623 634.702C397.623 633.717 372.736 635.059 372.736 635.059C372.736 635.059 365.456 628.143 359.996 633.603Z" fill="white"/>
<path d="M359.996 633.603L363.272 650.711C363.272 650.711 360.36 656.899 349.076 661.995C337.792 667.091 332.332 669.275 332.332 670.731C332.332 672.187 331.604 675.463 334.516 676.555C337.428 677.647 399.308 676.555 399.308 676.555C399.308 676.555 402.584 675.099 402.584 668.183C402.584 661.267 399.672 648.527 399.672 645.615C399.672 642.703 397.623 635.687 397.623 634.702C397.623 633.717 372.736 635.059 372.736 635.059C372.736 635.059 365.456 628.143 359.996 633.603Z" stroke="#1A2535" stroke-width="1.33333" stroke-miterlimit="10" stroke-linecap="round" stroke-linejoin="round"/>
<path d="M372.736 635.059C372.736 635.059 374.556 651.439 375.648 652.531C376.74 653.623 399.672 653.623 399.672 653.623" fill="white"/>
<path d="M372.736 635.059C372.736 635.059 374.556 651.439 375.648 652.531C376.74 653.623 399.672 653.623 399.672 653.623" stroke="#1A2535" stroke-width="1.33333" stroke-miterlimit="10" stroke-linecap="round" stroke-linejoin="round"/>
<path d="M399.672 645.615L374.192 645.979L399.672 645.615Z" fill="white"/>
<path d="M399.672 645.615L374.192 645.979" stroke="#1A2535" stroke-width="1.33333" stroke-miterlimit="10" stroke-linecap="round" stroke-linejoin="round"/>
<path d="M332.332 673.643H401.856H332.332Z" fill="white"/>
<path d="M332.332 673.643H401.856" stroke="#1A2535" stroke-width="1.33333" stroke-miterlimit="10" stroke-linecap="round" stroke-linejoin="round"/>
<path d="M341.009 428.432C341.009 428.432 340.517 471.262 342.979 489.476C345.44 507.691 354.793 550.029 356.269 573.166C357.747 596.303 360.209 607.133 360.209 607.133C360.209 607.133 356.763 610.089 356.763 613.041C356.763 615.994 358.731 615.994 358.239 620.425C357.747 624.855 355.779 626.333 357.255 628.302C358.731 630.272 359.717 634.21 364.638 635.194C369.563 636.18 392.698 635.687 397.623 634.702C402.545 633.717 405.008 628.794 405.008 624.855C405.008 620.918 403.53 617.964 403.53 613.534C403.53 609.103 405.992 605.164 405.992 602.212C405.992 599.257 405.008 597.781 405.008 594.827C405.008 591.873 398.607 544.612 398.607 534.767C398.607 524.921 398.115 491.445 399.593 483.076C401.069 474.707 408.454 434.833 408.454 434.833L341.009 428.432Z" fill="#5AE4A7"/>
<path d="M341.009 428.432C341.009 428.432 340.517 471.262 342.979 489.476C345.44 507.691 354.793 550.029 356.269 573.166C357.747 596.303 360.209 607.133 360.209 607.133C360.209 607.133 356.763 610.089 356.763 613.041C356.763 615.994 358.731 615.994 358.239 620.425C357.747 624.855 355.779 626.333 357.255 628.302C358.731 630.272 359.717 634.21 364.638 635.194C369.563 636.18 392.698 635.687 397.623 634.702C402.545 633.717 405.008 628.794 405.008 624.855C405.008 620.918 403.53 617.964 403.53 613.534C403.53 609.103 405.992 605.164 405.992 602.212C405.992 599.257 405.008 597.781 405.008 594.827C405.008 591.873 398.607 544.612 398.607 534.767C398.607 524.921 398.115 491.445 399.593 483.076C401.069 474.707 408.454 434.833 408.454 434.833L341.009 428.432Z" stroke="#1A2535" stroke-width="1.33333" stroke-miterlimit="10" stroke-linecap="round" stroke-linejoin="round"/>
<path d="M372.207 442.879C372.207 442.879 380.605 445.973 390.327 446.414C400.05 446.855 404.471 447.74 404.471 447.74L407.122 435.366L372.207 442.879Z" fill="#1A2535"/>
<path d="M372.207 442.879C372.207 442.879 380.605 445.973 390.327 446.414C400.05 446.855 404.471 447.74 404.471 447.74L407.122 435.366L372.207 442.879Z" stroke="#1A2535" stroke-width="1.33333" stroke-miterlimit="10" stroke-linecap="round" stroke-linejoin="round"/>
<path d="M366.811 444.996C366.811 444.996 369.228 512.646 374.06 535.195C378.891 557.745 385.336 594.792 383.724 599.624C382.114 604.457 379.698 615.732 379.698 615.732C379.698 615.732 388.556 614.12 388.556 618.953C388.556 623.785 375.671 627.006 378.891 629.423C382.114 631.838 385.311 634.5 385.311 634.5" stroke="#1A2535" stroke-width="1.33333" stroke-miterlimit="10" stroke-linecap="round" stroke-linejoin="round"/>
<path d="M395.426 617.881C395.426 617.881 368.694 622.217 376.281 623.663C383.867 625.107 398.316 623.301 399.039 621.494C399.762 619.688 397.594 617.52 395.426 617.881Z" fill="#1A2535"/>
<path d="M395.426 617.881C395.426 617.881 368.694 622.217 376.281 623.663C383.867 625.107 398.316 623.301 399.039 621.494C399.762 619.688 397.594 617.52 395.426 617.881Z" stroke="#1A2535" stroke-width="1.33333" stroke-miterlimit="10" stroke-linecap="round" stroke-linejoin="round"/>
<path d="M277.426 150.188L276.689 180.414L305.194 180.167L305.44 149.944L277.426 150.188Z" fill="#5AE4A7"/>
<path d="M309.862 205.969C309.862 205.969 303.719 199.826 301.015 194.174C298.313 188.523 294.382 185.083 294.382 181.15C294.382 177.219 296.101 168.126 295.363 164.441C294.628 160.755 295.363 153.137 297.821 153.137C300.279 153.137 302 155.349 301.508 157.806C301.015 160.264 302.981 168.865 302.981 168.865C302.981 168.865 304.948 152.4 305.193 151.417C305.439 150.435 308.879 150.435 310.354 151.171C311.829 151.909 313.549 151.663 313.549 154.858C313.549 158.052 312.81 161.739 312.81 162.476C312.81 163.212 319.692 167.144 319.938 170.092C320.182 173.042 319.445 180.167 317.726 183.117C316.006 186.066 315.022 188.031 314.776 189.014C314.531 189.997 321.413 200.317 321.413 200.317L309.862 205.969Z" fill="white"/>
<path d="M309.862 205.969C309.862 205.969 303.719 199.826 301.015 194.174C298.313 188.523 294.382 185.083 294.382 181.15C294.382 177.219 296.101 168.126 295.363 164.441C294.628 160.755 295.363 153.137 297.821 153.137C300.279 153.137 302 155.349 301.508 157.806C301.015 160.264 302.981 168.865 302.981 168.865C302.981 168.865 304.948 152.4 305.193 151.417C305.439 150.435 308.879 150.435 310.354 151.171C311.829 151.909 313.549 151.663 313.549 154.858C313.549 158.052 312.81 161.739 312.81 162.476C312.81 163.212 319.692 167.144 319.938 170.092C320.182 173.042 319.445 180.167 317.726 183.117C316.006 186.066 315.022 188.031 314.776 189.014C314.531 189.997 321.413 200.317 321.413 200.317L309.862 205.969Z" stroke="#1A2535" stroke-width="1.33333" stroke-miterlimit="10" stroke-linecap="round" stroke-linejoin="round"/>
<path d="M321.318 195.578L304.579 208.378C304.579 208.378 333.133 267.454 334.117 269.422C335.101 271.391 355.778 284.19 355.778 284.19L386.792 245.793C386.792 245.793 347.901 233.485 346.917 232.009C345.933 230.531 321.318 195.578 321.318 195.578Z" fill="#1A2535"/>
<path d="M321.318 195.578L304.579 208.378C304.579 208.378 333.133 267.454 334.117 269.422C335.101 271.391 355.778 284.19 355.778 284.19L386.792 245.793C386.792 245.793 347.901 233.485 346.917 232.009C345.933 230.531 321.318 195.578 321.318 195.578Z" stroke="#1A2535" stroke-width="1.33333" stroke-miterlimit="10" stroke-linecap="round" stroke-linejoin="round"/>
<path d="M341.068 412.655L339.612 435.587C339.612 435.587 358.54 443.595 378.924 443.231C399.308 442.867 426.608 434.859 426.608 434.859L430.612 412.291C430.612 412.291 381.472 416.295 366.548 414.839C351.624 413.383 341.068 412.655 341.068 412.655Z" fill="white"/>
<path d="M341.068 412.655L339.612 435.587C339.612 435.587 358.54 443.595 378.924 443.231C399.308 442.867 426.608 434.859 426.608 434.859L430.612 412.291C430.612 412.291 381.472 416.295 366.548 414.839C351.624 413.383 341.068 412.655 341.068 412.655Z" stroke="#1A2535" stroke-width="1.33333" stroke-miterlimit="10" stroke-linecap="round" stroke-linejoin="round"/>
<path d="M326.508 405.375L325.416 411.927C325.416 411.927 340.839 420.346 374.92 423.575C409.5 426.851 437.164 417.023 437.164 417.023L437.528 405.739C437.528 405.739 410.592 412.655 382.2 412.291C353.808 411.927 326.508 405.375 326.508 405.375Z" fill="#1A2535"/>
<path d="M326.508 405.375L325.416 411.927C325.416 411.927 340.839 420.346 374.92 423.575C409.5 426.851 437.164 417.023 437.164 417.023L437.528 405.739C437.528 405.739 410.592 412.655 382.2 412.291C353.808 411.927 326.508 405.375 326.508 405.375Z" stroke="#1A2535" stroke-width="1.33333" stroke-miterlimit="10" stroke-linecap="round" stroke-linejoin="round"/>
<path d="M354.172 269.966C354.172 269.966 342.16 291.078 338.156 307.458C334.152 323.838 326.144 399.55 325.052 403.918C323.96 408.286 349.44 417.022 366.184 417.386C382.928 417.75 420.42 418.478 426.972 415.93C433.524 413.382 439.712 409.742 439.712 405.738C439.712 401.734 440.076 386.81 440.076 374.798C440.076 362.786 436.436 299.45 433.16 284.89C429.884 270.33 427.7 260.138 426.608 258.318C425.516 256.498 417.508 247.762 401.128 248.854C384.748 249.946 370.916 256.134 364.728 259.774C358.54 263.414 354.172 269.966 354.172 269.966Z" fill="#1A2535"/>
<path d="M354.172 269.966C354.172 269.966 342.16 291.078 338.156 307.458C334.152 323.838 326.144 399.55 325.052 403.918C323.96 408.286 349.44 417.022 366.184 417.386C382.928 417.75 420.42 418.478 426.972 415.93C433.524 413.382 439.712 409.742 439.712 405.738C439.712 401.734 440.076 386.81 440.076 374.798C440.076 362.786 436.436 299.45 433.16 284.89C429.884 270.33 427.7 260.138 426.608 258.318C425.516 256.498 417.508 247.762 401.128 248.854C384.748 249.946 370.916 256.134 364.728 259.774C358.54 263.414 354.172 269.966 354.172 269.966Z" stroke="#1A2535" stroke-width="1.33333" stroke-miterlimit="10" stroke-linecap="round" stroke-linejoin="round"/>
<path d="M244.39 293.501C244.39 293.501 238.482 295.963 237.99 301.87C237.498 307.778 248.329 313.685 254.728 322.546C261.129 331.408 269.498 340.761 269.498 340.761L282.297 358.483L297.558 345.684L258.174 299.901C258.174 299.901 260.143 295.471 257.682 293.993C255.22 292.516 248.821 291.532 244.39 293.501Z" fill="white"/>
<path d="M244.39 293.501C244.39 293.501 238.482 295.963 237.99 301.87C237.498 307.778 248.329 313.685 254.728 322.546C261.129 331.408 269.498 340.761 269.498 340.761L282.297 358.483L297.558 345.684L258.174 299.901C258.174 299.901 260.143 295.471 257.682 293.993C255.22 292.516 248.821 291.532 244.39 293.501Z" stroke="#1A2535" stroke-width="1.33333" stroke-miterlimit="10" stroke-linecap="round" stroke-linejoin="round"/>
<path d="M245.375 307.285L289.681 292.517C289.681 292.517 292.634 304.824 305.926 317.624C319.219 330.422 331.525 338.791 331.525 338.791L291.65 361.437L245.375 307.285Z" fill="white"/>
<path d="M245.375 307.285L289.681 292.517C289.681 292.517 292.634 304.824 305.926 317.624C319.219 330.422 331.525 338.791 331.525 338.791L291.65 361.437L245.375 307.285Z" stroke="#1A2535" stroke-width="1.33333" stroke-miterlimit="10" stroke-linecap="round" stroke-linejoin="round"/>
<path d="M245.375 307.285C245.375 307.285 248.328 304.332 248.822 299.408C249.314 294.485 244.391 293.501 244.391 293.501L288.205 280.701C288.205 280.701 296.574 283.656 289.681 292.517L245.375 307.285Z" fill="white"/>
<path d="M245.375 307.285C245.375 307.285 248.328 304.332 248.822 299.408C249.314 294.485 244.391 293.501 244.391 293.501L288.205 280.701C288.205 280.701 296.574 283.656 289.681 292.517L245.375 307.285Z" stroke="#1A2535" stroke-width="1.33333" stroke-miterlimit="10" stroke-linecap="round" stroke-linejoin="round"/>
<path d="M304.087 354.097C304.087 354.097 294.242 352.619 293.75 349.666C293.257 346.712 291.287 340.313 289.319 337.851C287.349 335.388 277.996 330.467 275.043 327.019C272.089 323.574 270.119 318.652 268.15 319.144C266.18 319.636 263.227 321.606 264.212 323.574C265.197 325.543 269.628 333.912 269.628 333.912L270.611 337.358C270.611 337.358 261.75 335.882 260.273 335.388C258.797 334.896 256.828 335.882 256.828 338.343C256.828 340.805 254.858 340.805 257.319 342.281C259.781 343.758 262.735 345.727 262.735 345.727C262.735 345.727 266.18 353.604 267.166 355.081C268.15 356.557 276.027 360.004 277.504 360.988C278.98 361.974 286.857 364.434 290.795 365.418C294.734 366.403 303.595 369.849 303.595 369.849L306.057 358.527L304.087 354.097Z" fill="white"/>
<path d="M304.087 354.097C304.087 354.097 294.242 352.619 293.75 349.666C293.257 346.712 291.287 340.313 289.319 337.851C287.349 335.388 277.996 330.467 275.043 327.019C272.089 323.574 270.119 318.652 268.15 319.144C266.18 319.636 263.227 321.606 264.212 323.574C265.197 325.543 269.628 333.912 269.628 333.912L270.611 337.358C270.611 337.358 261.75 335.882 260.273 335.388C258.797 334.896 256.828 335.882 256.828 338.343C256.828 340.805 254.858 340.805 257.319 342.281C259.781 343.758 262.735 345.727 262.735 345.727C262.735 345.727 266.18 353.604 267.166 355.081C268.15 356.557 276.027 360.004 277.504 360.988C278.98 361.974 286.857 364.434 290.795 365.418C294.734 366.403 303.595 369.849 303.595 369.849L306.057 358.527L304.087 354.097Z" stroke="#1A2535" stroke-width="1.33333" stroke-miterlimit="10" stroke-linecap="round" stroke-linejoin="round"/>
<path d="M408.453 286.16C408.453 286.16 407.468 328.004 407.468 329.974C407.468 331.943 408.945 372.31 404.515 375.758C400.084 379.203 378.423 383.634 346.917 382.649C315.411 381.664 301.625 374.772 301.625 374.772L304.087 354.097L364.147 349.665C364.147 349.665 357.747 303.883 358.732 288.13C359.717 272.376 372.515 264.007 372.515 264.007" fill="#1A2535"/>
<path d="M408.453 286.16C408.453 286.16 407.468 328.004 407.468 329.974C407.468 331.943 408.945 372.31 404.515 375.758C400.084 379.203 378.423 383.634 346.917 382.649C315.411 381.664 301.625 374.772 301.625 374.772L304.087 354.097L364.147 349.665C364.147 349.665 357.747 303.883 358.732 288.13C359.717 272.376 372.515 264.007 372.515 264.007" stroke="#1A2535" stroke-width="1.33333" stroke-miterlimit="10" stroke-linecap="round" stroke-linejoin="round"/>
<path d="M342.169 384.481C342.169 384.481 401.789 386.573 404.928 379.249C408.066 371.929 408.066 299.756 408.066 299.756" stroke="#717171" stroke-width="1.33333" stroke-miterlimit="10" stroke-linecap="round" stroke-linejoin="round"/>
<path d="M368.318 272.561C368.318 272.561 355.766 286.158 357.858 303.94C359.949 321.721 364.147 349.666 364.147 349.666L341.123 351.008" stroke="#717171" stroke-width="1.33333" stroke-miterlimit="10" stroke-linecap="round" stroke-linejoin="round"/>
<path d="M342.929 158.877C342.929 158.877 334.678 173.156 336.265 175.061C337.852 176.964 336.582 180.455 336.582 180.455C336.582 180.455 328.333 186.801 328.968 189.022C329.602 191.243 336.265 197.272 336.265 197.272C336.265 197.272 337.535 214.408 339.122 215.995C340.709 217.58 351.496 219.485 353.718 219.802C355.94 220.12 357.208 220.755 357.208 220.755L363.555 255.024L399.093 222.975L393.381 207.744C393.381 207.744 390.21 187.435 390.526 177.916C390.843 168.397 374.342 156.973 364.506 154.118C354.669 151.263 342.929 158.877 342.929 158.877Z" fill="white"/>
<path d="M342.929 158.877C342.929 158.877 334.678 173.156 336.265 175.061C337.852 176.964 336.582 180.455 336.582 180.455C336.582 180.455 328.333 186.801 328.968 189.022C329.602 191.243 336.265 197.272 336.265 197.272C336.265 197.272 337.535 214.408 339.122 215.995C340.709 217.58 351.496 219.485 353.718 219.802C355.94 220.12 357.208 220.755 357.208 220.755L363.555 255.024L399.093 222.975L393.381 207.744C393.381 207.744 390.21 187.435 390.526 177.916C390.843 168.397 374.342 156.973 364.506 154.118C354.669 151.263 342.929 158.877 342.929 158.877Z" stroke="#1A2535" stroke-width="1.33333" stroke-miterlimit="10" stroke-linecap="round" stroke-linejoin="round"/>
<path d="M349.593 139.522C349.593 139.522 341.342 130.954 331.506 137.617C321.67 144.281 324.525 155.07 333.409 158.878C342.294 162.685 352.766 159.83 349.275 163.637C345.785 167.445 344.833 175.696 350.228 177.281C355.622 178.868 354.67 184.898 354.67 187.436C354.67 189.975 359.112 189.657 360.064 187.436C361.017 185.215 363.554 179.186 369.584 181.724C375.613 184.263 375.296 198.225 373.074 201.715C370.853 205.206 368.632 204.889 368.632 204.889C368.632 204.889 372.122 206.158 369.901 210.283L367.679 214.408C367.679 214.408 372.758 220.437 385.448 218.215C398.142 215.994 400.997 210.283 399.094 205.523C397.19 200.764 392.747 200.128 397.508 193.147C402.267 186.167 414.018 177.916 413.056 162.05C412.421 151.579 387.67 141.742 387.67 141.742C387.67 141.742 393.382 132.223 380.373 126.195C367.363 120.165 352.448 127.146 353.4 133.492C354.353 139.839 349.593 139.522 349.593 139.522Z" fill="#1A2535"/>
<path d="M349.593 139.522C349.593 139.522 341.342 130.954 331.506 137.617C321.67 144.281 324.525 155.07 333.409 158.878C342.294 162.685 352.766 159.83 349.275 163.637C345.785 167.445 344.833 175.696 350.228 177.281C355.622 178.868 354.67 184.898 354.67 187.436C354.67 189.975 359.112 189.657 360.064 187.436C361.017 185.215 363.554 179.186 369.584 181.724C375.613 184.263 375.296 198.225 373.074 201.715C370.853 205.206 368.632 204.889 368.632 204.889C368.632 204.889 372.122 206.158 369.901 210.283L367.679 214.408C367.679 214.408 372.758 220.437 385.448 218.215C398.142 215.994 400.997 210.283 399.094 205.523C397.19 200.764 392.747 200.128 397.508 193.147C402.267 186.167 414.018 177.916 413.056 162.05C412.421 151.579 387.67 141.742 387.67 141.742C387.67 141.742 393.382 132.223 380.373 126.195C367.363 120.165 352.448 127.146 353.4 133.492C354.353 139.839 349.593 139.522 349.593 139.522Z" stroke="#1A2535" stroke-width="1.33333" stroke-miterlimit="10" stroke-linecap="round" stroke-linejoin="round"/>
<path d="M336.17 173.912C336.17 173.912 332.139 172.839 331.823 174.744C331.506 176.647 331.823 186.168 331.823 186.168C331.823 186.168 334.361 187.753 336.583 187.118C338.805 186.483 337.534 178.551 337.534 178.551" stroke="#1A2535" stroke-width="1.33333" stroke-miterlimit="10" stroke-linecap="round" stroke-linejoin="round"/>
<path d="M361.333 184.58L332.11 179.748L332.141 177.916L361.333 184.58Z" fill="#1A2535"/>
<path d="M361.333 184.58L332.11 179.748L332.141 177.916L361.333 184.58Z" stroke="#1A2535" stroke-width="1.33333" stroke-miterlimit="10" stroke-linecap="round" stroke-linejoin="round"/>
<path d="M403.22 213.138C403.22 213.138 387.036 224.878 375.93 236.937C364.823 248.995 351.497 262.322 350.862 266.447C350.227 270.572 351.497 276.918 357.843 270.256C364.188 263.592 375.93 254.707 384.814 254.072C393.7 253.437 407.344 257.88 414.324 258.832C421.306 259.784 425.748 261.687 428.287 257.88C430.825 254.072 424.163 245.504 424.163 241.061C424.163 236.619 425.113 229.004 421.939 223.61C418.768 218.215 408.613 211.551 403.22 213.138Z" fill="#767676"/>
<path d="M403.22 213.138C403.22 213.138 387.036 224.878 375.93 236.937C364.823 248.995 351.497 262.322 350.862 266.447C350.227 270.572 351.497 276.918 357.843 270.256C364.188 263.592 375.93 254.707 384.814 254.072C393.7 253.437 407.344 257.88 414.324 258.832C421.306 259.784 425.748 261.687 428.287 257.88C430.825 254.072 424.163 245.504 424.163 241.061C424.163 236.619 425.113 229.004 421.939 223.61C418.768 218.215 408.613 211.551 403.22 213.138Z" stroke="#1A2535" stroke-width="1.33333" stroke-miterlimit="10" stroke-linecap="round" stroke-linejoin="round"/>
<path d="M423.955 228.859C423.955 228.859 422.117 234.982 420.283 237.737C418.445 240.491 392.428 245.695 392.428 245.695C392.428 245.695 413.854 244.471 417.834 244.471C421.811 244.471 426.404 248.144 426.404 248.144L424.26 242.327C424.26 242.327 425.179 231.614 423.955 228.859Z" fill="#1A2535"/>
<path d="M423.955 228.859C423.955 228.859 422.117 234.982 420.283 237.737C418.445 240.491 392.428 245.695 392.428 245.695C392.428 245.695 413.854 244.471 417.834 244.471C421.811 244.471 426.404 248.144 426.404 248.144L424.26 242.327C424.26 242.327 425.179 231.614 423.955 228.859Z" stroke="#1A2535" stroke-width="1.33333" stroke-miterlimit="10" stroke-linecap="round" stroke-linejoin="round"/>
<path d="M46.592 677.04H711.984" stroke="#1A2535" stroke-width="1.33333" stroke-miterlimit="10" stroke-linecap="round" stroke-linejoin="round"/>
</svg>
